<?xml version="1.0" encoding="utf-8"?>
<!-- Generator: Adobe Illustrator 25.2.3, SVG Export Plug-In . SVG Version: 6.00 Build 0)  -->
<svg version="1.1" id="Crearte" xmlns="http://www.w3.org/2000/svg" xmlns:xlink="http://www.w3.org/1999/xlink" x="0px" y="0px"
	 viewBox="0 0 200 90" style="enable-background:new 0 0 200 90;" xml:space="preserve">
<style type="text/css">
	.st0{fill:#FFFFFF;}
	.st1{fill:#1A1A1A;}
	.st2{fill:#FF5A5A;}
	.st3{fill:#FF91C3;}
	.st4{fill:#FFD737;}
</style>
<g id="Crearte-2">
	<path class="st0" d="M197.3,51.6c0.3-0.8,0.5-1.6,0.6-2.4l0-0.1c0.8-5-1.1-9.7-5.3-13.1c-1.5-1.2-3.2-2.2-5.1-2.9
		c-0.2-0.7-0.5-1.4-0.9-2.1l-3.2-5.4c1.3-0.9,2.4-2.1,3.2-3.5c0.6-0.4,1.2-0.9,1.7-1.5c2.1-2.2,2.9-4.6,3-6.7
		c2.4-4.4,1.2-8.4-0.8-10.7c-1.7-2-4.3-3.2-6.9-3.2l0,0c-3.1,0-5.9,1.5-7.7,2.8c-0.3,0.2-0.5,0.4-0.7,0.6c-0.1,0.1-0.2,0.2-0.3,0.2
		s-0.3,0.2-0.4,0.3l-0.2,0.1c-1,0.6-2.1,1.2-3.1,1.7c-1.9-2-4.5-3.2-7.3-3.5c-0.4-0.1-0.8-0.1-1.2-0.1h-12.5c-4.5,0-8.1,3.7-8.1,8.2
		c0,4.2,3.2,7.7,7.4,8.1c0.5,0.1,1,0.3,1.5,0.5c0.3,1.6,0.8,3.1,1.5,4.5c-1.1,0.6-2.1,1.5-2.9,2.5l-1.8,2.5l-0.1,0.2
		c-0.4,0.6-1.3,1.7-3.1,3.1c-0.7,0.6-1.2,0.8-1.3,0.8h-0.1c-0.9,0-1.7,0.1-2.5,0.4c-1.9-0.7-4-1-6-1c-0.3,0-0.5,0-0.8,0
		c-0.7,0.1-1.3,0.2-2,0.3c-1.3-0.8-2.7-1.2-4.2-1.2c-0.7,0-1.3,0.1-2,0.2l-11.7,2.9c-0.9,0.2-1.7,0.6-2.4,1.1
		c-0.2-0.1-0.4-0.2-0.6-0.3c-2-1.1-4.1-1.9-6.2-2.4c-2-0.4-4-0.7-6.1-0.7c-2.4,0-4.8,0.5-7.1,1.3c-0.4-3.1-2-7.2-7-10.5
		c-3.4-2.3-7.4-3.5-11.9-3.5c-7.3,0-13.8,3.1-18.9,8.9c-0.8,0.9-1.6,1.9-2.3,2.9c-0.2,0-0.5,0.1-0.7,0.1l-8.3,2.1
		c-1.4-1.8-3-3.4-4.9-4.6c-3.8-2.5-8.2-3.8-13.2-3.8c-6.9,0-12.8,2.5-17.2,7.3c-4.2,4.5-6.5,9.9-7,16.1c0,0.1,0,0.1,0,0.2
		c-0.4,6.9,1.5,13,5.8,18.1c4.2,5.1,10.3,8.1,17.4,8.7c0.2,0,0.4,0,0.6,0H25c3.8,0,7.6-0.9,11-2.7c1.4,1.1,3.2,1.7,5,1.7h13.4
		c2.1,0,4.1-0.8,5.7-2.3c3.3,1.8,7.2,2.7,11.5,2.7h0.3c3.8-0.1,7.5-1.3,10.6-3.3c0.2,0.2,0.4,0.3,0.6,0.5c2.8,2.1,6.5,3.2,11,3.2
		c0.2,0,0.3,0,0.5,0c2.4-0.1,4.7-0.7,6.8-1.8c1.8,0.8,3.7,1.1,5.6,1.1h6.5c0.5,0,1,0,1.5-0.1c0.3,0,0.7,0.1,1,0.1h13.4
		c4.5,0,8.1-3.6,8.1-8.1c0-1.4-0.3-2.7-1-3.9c-0.3-0.5-0.5-0.9-0.6-1.5c0.5,0.1,1.1,0.2,1.7,0.2c0.4,0,0.7,0,1.1-0.1
		c0.7,3.7,2.2,6.8,4.5,9.3c2.3,2.4,6.6,5.3,13.8,5.3c0.2,0,0.4,0,0.6,0c3.8-0.3,7.2-1.7,9.7-4.2c3.7,2.5,8.1,3.8,13.2,3.8
		c0.1,0,0.2,0,0.3,0c4.6-0.1,8.9-1.8,12.5-4.7c3.9-3.1,6.2-7.2,6.7-11.9c0-0.3,0.1-0.6,0.1-0.9C200,55.4,199,53.2,197.3,51.6z
		 M183.6,8.1L183.6,8.1L183.6,8.1z M92.4,49.8L92.4,49.8L92.4,49.8C92.4,49.8,92.4,49.8,92.4,49.8L92.4,49.8z M137.5,52.9
		c0,0-0.1,0-0.1,0C137.5,52.9,137.6,52.9,137.5,52.9C137.6,52.9,137.6,52.9,137.5,52.9z"/>
	<path class="st1" d="M37.4,56.3c0.3-0.4,0.6-0.7,0.9-0.7c0.6,0,0.7,0.5,0.5,1.4c-0.6,3-2.2,5.4-4.9,7.2c-2.6,1.9-5.8,2.8-9,2.8
		h-1.1c-5-0.4-9-2.3-11.8-5.8s-4.2-7.6-3.9-12.5c0.3-4.3,1.9-8.1,4.8-11.2c2.9-3.1,6.7-4.7,11.3-4.7c3.3,0,6.2,0.8,8.6,2.4
		s4.1,4,5.1,7.2c0.1,0.3,0,0.6-0.3,0.8c-0.4,0.2-1.7,1-3.8,2.3c-2.1,1.3-3.6,2.2-4.4,2.6h-0.1c0,0-0.1,0.1-0.2,0.1
		c-0.4,0-0.7-0.3-0.7-0.8c0.2-3.3,0-6.2-0.6-8.9c-0.6-2.6-1.7-4-3.3-4.1c-1.6,0-2.9,0.8-3.8,2.5c-0.9,1.7-1.5,3.5-1.8,5.5
		c-0.7,5.1-0.2,9.6,1.4,13.5s4.2,5.9,8,6.1c1.7,0,3.4-0.6,5.1-1.8C35.4,59.3,36.6,57.9,37.4,56.3z"/>
	<path class="st1" d="M52.8,55.2v5.2c0,1.9,0.5,3.8,1.6,5.8H41c1.1-1.9,1.6-3.9,1.6-5.8V47.8c0-1.9-0.5-3.8-1.6-5.8l11.7-2.9
		l0.1,8.5c1.1-5.2,3.5-10.1,7.1-14.1c3.6-4.1,7.9-6.1,12.8-6.1c2.8,0,5.3,0.7,7.4,2.1s3.2,3.1,3.5,5.1c0.1,1.1-0.1,2.1-0.6,3.1
		c-0.5,1.1-1.1,1.7-1.8,2c-2.1-3-5.2-4.5-9.5-4.5c-5.2,0-9.5,2-12.9,6S53.3,49.8,52.8,55.2z M82.4,57.3l0.2-0.1
		c0.1,0,0.2,0.1,0.3,0.2c0,0,0,0,0,0.1c-0.3,2.5-1.5,4.6-3.7,6.3c-2.2,1.7-4.9,2.7-7.6,2.8c-4,0-7.3-1.1-9.9-3.3
		c-2.6-2.2-4-5.3-4.3-9.3c-0.2-3.4,0.8-6.7,2.9-9.4c2.1-2.8,5.4-4.2,9.8-4.4c0.2,0,0.4,0,0.6,0c0.2,0,0.4,0,0.6,0
		c3,0,5.4,0.8,7.4,2.3c1.9,1.6,2.8,3.4,2.4,5.4c-0.4,2.4-2,4.2-4.8,5.5c-2.7,1.2-5.6,2-8.6,2.3c1.9,2.8,4.5,4.2,7.9,4.2
		C78.4,59.8,80.8,59,82.4,57.3L82.4,57.3z M65.6,48.2c0,2.5,0.5,4.6,1.4,6.5c1.2-0.4,2.4-1.2,3.5-2.4c1.1-1.2,1.9-2.7,2.1-4.4
		c0.2-1.3,0.1-2.7-0.5-4.1c-0.6-1.5-1.4-2.2-2.6-2.3c-1.2-0.1-2.1,0.6-2.8,2.1C66.1,45.1,65.7,46.6,65.6,48.2L65.6,48.2z"/>
	<path class="st1" d="M113.4,66.3h-6.5c-2.8,0-4.4-1.4-4.8-4.3c-0.7,1.2-1.8,2.3-3.2,3.3c-1.4,1-3.1,1.6-4.9,1.7c-5.3,0-8-2.1-8-6.2
		c0-2.1,0.8-4.1,2.2-5.7c1.4-1.7,3.2-2.9,5.3-3.7c2.1-0.8,3.8-1.4,5.2-1.8c1.1-0.3,2.2-0.6,3.3-0.7c0.6-4.8-0.7-7.3-3.8-7.3h-0.5
		c-1.6,0.2-2.8,1.1-3.7,2.7c-0.9,1.6-1.4,3.4-1.5,5.2c0,0.3-0.1,0.3-0.3,0.1c-0.3-0.4-0.9-1.2-1.7-2.3c-0.9-1.1-1.3-1.8-1.5-1.9
		c-0.2-0.2-0.2-0.4,0-0.7c1-1.5,2.4-2.7,4.3-3.5c1.9-0.8,3.6-1.2,5.3-1.2c1.4,0,2.9,0.1,4.3,0.5c1.5,0.4,2.9,0.9,4.2,1.6
		c1.4,0.8,2.6,2,3.5,3.8s1.3,3.9,1.3,6.4v8.5C111.8,62.4,112.4,64.2,113.4,66.3z M97.5,63.6c0.2,0.1,0.4,0.1,0.6,0.1
		c1.3,0,2.7-0.9,4-2.7c-0.1-0.2-0.1-0.5-0.1-0.8V49.7c-1.4,0.4-2.8,1.3-4.3,2.8c-1.5,1.5-2.3,3.5-2.5,6
		C94.9,61.5,95.7,63.2,97.5,63.6z"/>
	<path class="st1" d="M142.2,44c0.1,0.2,0.1,0.5-0.1,0.7c-0.2,0.3-0.9,1.6-2.1,4.1c-1.2,2.4-2,3.8-2.3,4.2c-0.1,0.1-0.1,0.1-0.2,0
		c-0.1-0.1-0.1-0.1-0.1-0.2c-0.1-2.2-0.4-4.4-1.1-6.5c-0.7-2.2-1.7-3.3-3-3.3c-0.1,0-0.1,0-0.2,0c-0.1,0-0.1,0-0.2,0
		c-1.2,0.2-2.3,1.1-3.4,2.8s-1.6,4.1-1.7,7v7.6c0,1.9,0.5,3.8,1.6,5.8h-13.4c1.1-1.9,1.6-3.9,1.6-5.8V47.9c0-1.9-0.5-3.8-1.6-5.8
		l11.7-2.9v6.3c1.8-3.3,4.1-5.1,7-5.4C137.8,40,140.3,41.3,142.2,44z"/>
	<path class="st1" d="M142.7,41.2c0-0.2,0.1-0.5,0.4-0.5c0,0,0.1,0,0.1,0h0.2c2.1,0,4.2-0.8,6.3-2.5s3.8-3.3,4.9-5l1.8-2.5l0.3-0.2
		v10.2h5.9c0.2,0,0.5,0.1,0.5,0.4c0,0,0,0.1,0,0.1v0.3c0,0.2-0.1,0.5-0.4,0.5c0,0-0.1,0-0.1,0h-5.9v12.9c0.1,4.4,1.3,6.6,3.8,6.7
		c1.3,0,2.4-0.7,3.2-2c0.1-0.1,0.2-0.2,0.3-0.2c0.2,0,0.3,0.1,0.3,0.3c0,0,0,0.1,0,0.1c-0.1,1.9-0.8,3.7-2,5.1
		c-1.3,1.5-3,2.4-5.3,2.5c-7,0-10.5-3.7-10.5-11.1l0.1-14.3h-3.3c-0.2,0-0.5-0.1-0.5-0.4c0,0,0-0.1,0-0.1V41.2z"/>
	<path class="st1" d="M191.4,57.6l0.2-0.1c0.1,0,0.2,0.1,0.3,0.2c0,0,0,0,0,0.1c-0.3,2.5-1.5,4.6-3.7,6.4c-2.2,1.8-4.9,2.8-7.6,2.8
		c-4.1,0-7.4-1.1-10-3.4c-2.6-2.3-4-5.4-4.2-9.4c-0.2-3.4,0.8-6.8,2.9-9.6c2.1-2.8,5.4-4.3,9.9-4.6c0.2,0,0.4,0,0.5,0
		c0.2,0,0.4,0,0.5,0c3,0,5.4,0.8,7.3,2.4c1.9,1.6,2.8,3.4,2.4,5.6c-0.2,1.3-0.9,2.6-1.8,3.6c-1,1.1-2.3,1.9-3.7,2.4
		c-1.3,0.5-2.7,1-4.1,1.3c-1.2,0.3-2.4,0.5-3.7,0.6c1.8,2.9,4.4,4.3,7.9,4.3C187.4,60.2,189.7,59.3,191.4,57.6z M174.7,48.2
		c-0.1,2.6,0.4,4.8,1.4,6.7c1.2-0.4,2.4-1.2,3.5-2.4c1.1-1.3,1.8-2.8,2-4.5c0.2-1.3,0.1-2.7-0.5-4.2s-1.4-2.3-2.6-2.4
		c-1.2-0.1-2.1,0.7-2.8,2.2C175.1,45,174.8,46.6,174.7,48.2L174.7,48.2z"/>
	<path class="st1" d="M32.8,86.2H29L28.2,88h-1l3.2-7.1h1l3.2,7.1h-1.1L32.8,86.2z M32.4,85.4l-1.5-3.5l-1.5,3.5H32.4z"/>
	<path class="st1" d="M37.1,82.8c0.4-0.2,0.8-0.3,1.2-0.2v0.9c-0.5-0.1-1.1,0.1-1.5,0.5c-0.3,0.4-0.5,0.9-0.5,1.3V88h-1v-5.4h0.9
		v0.9C36.5,83.2,36.8,82.9,37.1,82.8z"/>
	<path class="st1" d="M42.7,87.7c-0.2,0.1-0.3,0.2-0.5,0.3C41.9,88,41.7,88,41.5,88c-0.5,0-0.9-0.1-1.3-0.4
		c-0.3-0.3-0.5-0.8-0.4-1.3v-3h-0.9v-0.8h0.9v-1.2h1v1.2h1.5v0.8h-1.5v2.9c0,0.2,0.1,0.5,0.2,0.7c0.2,0.2,0.4,0.2,0.6,0.2
		c0.3,0,0.5-0.1,0.8-0.3L42.7,87.7z"/>
	<path class="st1" d="M44.9,80.5h1.2l-1.7,1.3h-0.9L44.9,80.5z M43.8,82.6h1V88h-1V82.6z"/>
	<path class="st1" d="M47.4,87.7c-0.4-0.2-0.8-0.6-1-1c-0.5-0.9-0.5-2,0-2.8c0.2-0.4,0.6-0.8,1-1c0.5-0.2,1-0.4,1.5-0.4
		c0.5,0,0.9,0.1,1.3,0.3c0.4,0.2,0.7,0.5,0.9,0.9l-0.7,0.5c-0.2-0.2-0.4-0.4-0.6-0.6c-0.3-0.1-0.5-0.2-0.8-0.2c-0.3,0-0.7,0.1-1,0.2
		c-0.3,0.2-0.5,0.4-0.7,0.7c-0.2,0.3-0.2,0.6-0.2,1c0,0.3,0.1,0.7,0.2,1c0.2,0.3,0.4,0.5,0.7,0.7c0.3,0.2,0.6,0.2,1,0.2
		c0.3,0,0.6-0.1,0.8-0.2c0.3-0.1,0.5-0.3,0.6-0.6l0.7,0.5c-0.2,0.4-0.5,0.7-0.9,0.9c-0.4,0.2-0.9,0.3-1.3,0.3
		C48.3,88.1,47.8,87.9,47.4,87.7z"/>
	<path class="st1" d="M57.2,82.6V88h-0.9v-0.8c-0.2,0.3-0.5,0.5-0.8,0.6C55.2,88,54.8,88,54.5,88c-0.7,0-1.3-0.2-1.7-0.6
		c-0.4-0.4-0.6-1-0.6-1.8v-3.1h1v3c0,0.4,0.1,0.9,0.4,1.2c0.3,0.3,0.7,0.4,1.1,0.4c0.5,0,0.9-0.1,1.2-0.5c0.3-0.4,0.5-0.8,0.4-1.3
		v-2.8L57.2,82.6z"/>
	<path class="st1" d="M59,80.4h1V88h-1V80.4z"/>
	<path class="st1" d="M62.6,87.7c-0.4-0.2-0.8-0.6-1-1c-0.5-0.9-0.5-2,0-2.8c0.2-0.4,0.6-0.8,1-1c0.4-0.2,0.9-0.4,1.4-0.4
		c0.5,0,1,0.1,1.4,0.4c0.4,0.2,0.8,0.6,1,1c0.5,0.9,0.5,2,0,2.8c-0.2,0.4-0.6,0.8-1,1c-0.4,0.2-0.9,0.4-1.4,0.4
		C63.5,88.1,63,87.9,62.6,87.7z M65,87c0.3-0.2,0.5-0.4,0.6-0.7c0.3-0.6,0.3-1.4,0-2c-0.1-0.3-0.4-0.5-0.6-0.7
		c-0.6-0.3-1.3-0.3-1.9,0c-0.3,0.2-0.5,0.4-0.6,0.7c-0.3,0.6-0.3,1.4,0,2c0.1,0.3,0.4,0.5,0.6,0.7C63.7,87.3,64.4,87.3,65,87z"/>
	<path class="st1" d="M68.4,87.9c-0.3-0.1-0.7-0.2-1-0.5l0.4-0.8c0.3,0.2,0.6,0.3,0.9,0.4c0.3,0.1,0.7,0.2,1,0.2
		c0.9,0,1.3-0.2,1.3-0.7c0-0.1-0.1-0.3-0.2-0.4c-0.1-0.1-0.3-0.2-0.4-0.2c-0.2,0-0.4-0.1-0.7-0.1c-0.4-0.1-0.7-0.1-1.1-0.2
		c-0.3-0.1-0.5-0.2-0.7-0.4c-0.2-0.2-0.3-0.6-0.3-0.9c0-0.5,0.2-0.9,0.6-1.2c0.5-0.3,1.1-0.5,1.6-0.4c0.4,0,0.7,0,1.1,0.1
		c0.3,0.1,0.6,0.2,0.9,0.4l-0.4,0.8c-0.5-0.3-1-0.4-1.6-0.4c-0.3,0-0.7,0.1-0.9,0.2c-0.2,0.1-0.3,0.3-0.3,0.5c0,0.2,0.1,0.3,0.2,0.4
		c0.1,0.1,0.3,0.2,0.5,0.2c0.2,0,0.4,0.1,0.8,0.2c0.4,0.1,0.7,0.1,1.1,0.2c0.3,0.1,0.5,0.2,0.7,0.4c0.2,0.2,0.3,0.5,0.3,0.9
		c0,0.5-0.2,0.9-0.6,1.2c-0.4,0.3-1,0.4-1.7,0.4C69.2,88,68.8,88,68.4,87.9z"/>
	<path class="st1" d="M80,82.9c0.4,0.2,0.7,0.6,1,1c0.2,0.4,0.4,0.9,0.4,1.4c0,0.5-0.1,1-0.4,1.4c-0.2,0.4-0.6,0.7-1,1
		c-0.4,0.2-0.9,0.4-1.4,0.3c-0.4,0-0.7-0.1-1.1-0.2c-0.3-0.1-0.6-0.4-0.8-0.7V90h-1v-7.4h0.9v0.9c0.2-0.3,0.5-0.5,0.8-0.7
		c0.3-0.2,0.7-0.2,1.1-0.2C79.1,82.5,79.6,82.6,80,82.9z M79.5,87c0.3-0.2,0.5-0.4,0.6-0.7c0.3-0.6,0.3-1.4,0-2
		c-0.1-0.3-0.4-0.5-0.6-0.7c-0.3-0.2-0.6-0.2-0.9-0.2c-0.3,0-0.6,0.1-0.9,0.2c-0.3,0.2-0.5,0.4-0.7,0.7c-0.2,0.3-0.2,0.6-0.2,1
		c0,0.3,0.1,0.7,0.2,1c0.1,0.3,0.4,0.5,0.7,0.7C78.2,87.3,78.9,87.3,79.5,87L79.5,87z"/>
	<path class="st1" d="M86.2,83.1c0.4,0.4,0.6,0.9,0.6,1.6V88h-0.9v-0.7c-0.2,0.3-0.4,0.5-0.7,0.6c-0.3,0.1-0.7,0.2-1.1,0.2
		c-0.5,0-1-0.1-1.5-0.4c-0.6-0.5-0.7-1.5-0.2-2.1c0.1-0.1,0.1-0.1,0.2-0.2c0.3-0.3,0.9-0.4,1.6-0.4h1.5v-0.2c0-0.4-0.1-0.7-0.4-1
		c-0.3-0.2-0.7-0.4-1.1-0.3c-0.3,0-0.6,0.1-0.9,0.2c-0.3,0.1-0.5,0.2-0.8,0.4l-0.4-0.7c0.3-0.2,0.6-0.4,1-0.5
		c0.4-0.1,0.8-0.2,1.2-0.2C85.2,82.5,85.8,82.7,86.2,83.1z M85.2,87c0.3-0.2,0.5-0.4,0.6-0.7v-0.8h-1.5c-0.8,0-1.2,0.3-1.2,0.8
		c0,0.3,0.1,0.5,0.3,0.6c0.3,0.2,0.6,0.3,0.9,0.2C84.6,87.3,84.9,87.2,85.2,87z"/>
	<path class="st1" d="M90.2,82.8c0.4-0.2,0.8-0.3,1.2-0.2v0.9c-0.5-0.1-1.1,0.1-1.5,0.5c-0.3,0.4-0.5,0.9-0.5,1.3V88h-1v-5.4h0.9
		v0.9C89.6,83.2,89.9,82.9,90.2,82.8z"/>
	<path class="st1" d="M96.2,83.1c0.4,0.4,0.6,0.9,0.6,1.6V88h-0.9v-0.7c-0.2,0.3-0.4,0.5-0.7,0.6c-0.3,0.1-0.7,0.2-1.1,0.2
		c-0.5,0-1-0.1-1.5-0.4c-0.6-0.5-0.7-1.5-0.2-2.1c0.1-0.1,0.1-0.1,0.2-0.2c0.3-0.3,0.9-0.4,1.6-0.4h1.5v-0.2c0-0.4-0.1-0.7-0.4-1
		c-0.3-0.2-0.7-0.4-1.1-0.3c-0.3,0-0.6,0.1-0.9,0.2c-0.3,0.1-0.5,0.2-0.8,0.4l-0.4-0.7c0.3-0.2,0.6-0.4,1-0.5
		c0.4-0.1,0.8-0.2,1.2-0.2C95.2,82.5,95.8,82.7,96.2,83.1z M95.2,87c0.3-0.2,0.5-0.4,0.6-0.7v-0.8h-1.5c-0.8,0-1.2,0.3-1.2,0.8
		c0,0.3,0.1,0.5,0.3,0.6c0.3,0.2,0.6,0.3,0.9,0.2C94.6,87.3,94.9,87.2,95.2,87z"/>
	<path class="st1" d="M109.5,83.1c0.4,0.4,0.6,1,0.6,1.8V88h-1v-3c0-0.5-0.1-0.9-0.4-1.2c-0.3-0.3-0.6-0.4-1-0.4
		c-0.4,0-0.9,0.1-1.2,0.5c-0.3,0.3-0.4,0.8-0.4,1.3V88h-1v-3c0-0.5-0.1-0.9-0.4-1.2c-0.3-0.3-0.6-0.4-1-0.4c-0.4,0-0.9,0.1-1.2,0.5
		c-0.3,0.3-0.4,0.8-0.4,1.3V88h-1v-5.4h0.9v0.8c0.2-0.3,0.5-0.5,0.8-0.6c0.3-0.2,0.7-0.2,1.1-0.2c0.4,0,0.8,0.1,1.1,0.3
		c0.3,0.2,0.6,0.4,0.8,0.7c0.2-0.3,0.5-0.6,0.8-0.7c0.4-0.2,0.8-0.3,1.2-0.3C108.5,82.5,109.1,82.7,109.5,83.1z"/>
	<path class="st1" d="M115.5,83.1c0.4,0.4,0.6,0.9,0.6,1.6V88h-0.9v-0.7c-0.2,0.3-0.4,0.5-0.7,0.6c-0.3,0.1-0.7,0.2-1.1,0.2
		c-0.5,0-1-0.1-1.5-0.4c-0.6-0.5-0.7-1.5-0.2-2.1c0.1-0.1,0.1-0.1,0.2-0.2c0.3-0.3,0.9-0.4,1.6-0.4h1.5v-0.2c0-0.4-0.1-0.7-0.4-1
		c-0.3-0.2-0.7-0.4-1.1-0.3c-0.3,0-0.6,0.1-0.9,0.2c-0.3,0.1-0.5,0.2-0.8,0.4l-0.4-0.7c0.3-0.2,0.6-0.4,1-0.5
		c0.4-0.1,0.8-0.2,1.2-0.2C114.5,82.5,115.1,82.7,115.5,83.1z M114.5,87c0.3-0.2,0.5-0.4,0.6-0.7v-0.8h-1.5c-0.8,0-1.2,0.3-1.2,0.8
		c0,0.3,0.1,0.5,0.3,0.6c0.3,0.2,0.6,0.3,0.9,0.2C113.9,87.3,114.2,87.2,114.5,87L114.5,87z"/>
	<path class="st1" d="M122.3,83.1c0.4,0.4,0.6,1,0.6,1.7V88h-1v-3c0-0.5-0.1-0.9-0.4-1.2c-0.3-0.3-0.7-0.4-1.1-0.4
		c-0.5,0-0.9,0.1-1.3,0.5c-0.3,0.4-0.5,0.8-0.5,1.3V88h-1v-5.4h0.9v0.8c0.2-0.3,0.5-0.5,0.8-0.6c0.4-0.2,0.8-0.2,1.1-0.2
		C121.3,82.5,121.8,82.7,122.3,83.1z"/>
	<path class="st1" d="M129.6,82.6V88h-0.9v-0.8c-0.2,0.3-0.5,0.5-0.8,0.6c-0.3,0.2-0.7,0.2-1.1,0.2c-0.7,0-1.3-0.2-1.7-0.6
		c-0.4-0.4-0.6-1-0.6-1.8v-3.1h1v3c0,0.5,0.1,0.9,0.4,1.2c0.3,0.3,0.7,0.4,1.1,0.4c0.5,0,0.9-0.1,1.2-0.5c0.3-0.4,0.5-0.8,0.4-1.3
		v-2.8L129.6,82.6z"/>
	<path class="st1" d="M135.1,83.1c0.4,0.4,0.6,0.9,0.6,1.6V88h-0.9v-0.7c-0.2,0.3-0.4,0.5-0.7,0.6c-0.3,0.1-0.7,0.2-1.1,0.2
		c-0.5,0-1-0.1-1.5-0.4c-0.6-0.5-0.7-1.5-0.2-2.1c0.1-0.1,0.1-0.1,0.2-0.2c0.3-0.3,0.9-0.4,1.6-0.4h1.5v-0.2c0-0.4-0.1-0.7-0.4-1
		c-0.3-0.2-0.7-0.4-1.1-0.3c-0.3,0-0.6,0.1-0.9,0.2c-0.3,0.1-0.5,0.2-0.8,0.4l-0.4-0.7c0.3-0.2,0.6-0.4,1-0.5
		c0.4-0.1,0.8-0.2,1.2-0.2C134.1,82.5,134.7,82.7,135.1,83.1z M134.1,87c0.3-0.2,0.5-0.4,0.6-0.7v-0.8h-1.5c-0.8,0-1.2,0.3-1.2,0.8
		c0,0.3,0.1,0.5,0.3,0.6c0.3,0.2,0.6,0.3,0.9,0.2C133.5,87.3,133.8,87.2,134.1,87z"/>
	<path class="st1" d="M137.4,80.4h1V88h-1V80.4z"/>
	<path class="st1" d="M140.1,81.4c-0.1-0.1-0.2-0.3-0.2-0.4c0-0.2,0.1-0.3,0.2-0.5c0.1-0.1,0.3-0.2,0.5-0.2c0.2,0,0.3,0.1,0.5,0.2
		c0.1,0.1,0.2,0.3,0.2,0.4c0,0.2-0.1,0.3-0.2,0.5c-0.1,0.1-0.3,0.2-0.5,0.2C140.4,81.6,140.3,81.5,140.1,81.4z M140.1,82.6h1V88h-1
		L140.1,82.6z"/>
	<path class="st1" d="M147.9,80.4V88H147v-0.8c-0.2,0.3-0.5,0.5-0.8,0.7c-0.3,0.2-0.7,0.2-1.1,0.2c-0.5,0-1-0.1-1.4-0.3
		c-0.4-0.2-0.7-0.6-1-1c-0.2-0.4-0.4-0.9-0.4-1.4c0-0.5,0.1-1,0.4-1.4c0.2-0.4,0.6-0.7,1-1c0.4-0.2,0.9-0.4,1.4-0.3
		c0.4,0,0.7,0.1,1.1,0.2c0.3,0.1,0.6,0.4,0.8,0.6v-3L147.9,80.4z M146.1,86.9c0.3-0.2,0.5-0.4,0.7-0.7c0.3-0.6,0.3-1.4,0-2
		c-0.1-0.3-0.4-0.5-0.7-0.7c-0.6-0.3-1.3-0.3-1.9,0c-0.3,0.2-0.5,0.4-0.7,0.7c-0.3,0.6-0.3,1.4,0,2c0.2,0.3,0.4,0.5,0.7,0.7
		C144.8,87.3,145.5,87.3,146.1,86.9z"/>
	<path class="st1" d="M153.4,83.1c0.4,0.4,0.6,0.9,0.6,1.6V88H153v-0.7c-0.2,0.3-0.4,0.5-0.7,0.6c-0.3,0.1-0.7,0.2-1.1,0.2
		c-0.5,0-1-0.1-1.4-0.4c-0.6-0.5-0.7-1.5-0.2-2.1c0.1-0.1,0.1-0.1,0.2-0.2c0.3-0.3,0.9-0.4,1.6-0.4h1.5v-0.2c0-0.4-0.1-0.7-0.4-1
		c-0.3-0.2-0.7-0.4-1.1-0.3c-0.3,0-0.6,0.1-0.9,0.2c-0.3,0.1-0.5,0.2-0.8,0.4l-0.4-0.7c0.3-0.2,0.6-0.4,1-0.5
		c0.4-0.1,0.8-0.2,1.2-0.2C152.4,82.5,153,82.7,153.4,83.1z M152.4,87c0.3-0.2,0.5-0.4,0.6-0.7v-0.8h-1.5c-0.8,0-1.2,0.3-1.2,0.8
		c0,0.3,0.1,0.5,0.3,0.6c0.3,0.2,0.6,0.3,0.9,0.2C151.8,87.3,152.1,87.2,152.4,87L152.4,87z"/>
	<path class="st1" d="M160.8,80.4V88h-0.9v-0.8c-0.2,0.3-0.5,0.5-0.8,0.7c-0.3,0.2-0.7,0.2-1.1,0.2c-0.5,0-1-0.1-1.4-0.3
		c-0.4-0.2-0.7-0.6-1-1c-0.2-0.4-0.4-0.9-0.4-1.4c0-0.5,0.1-1,0.4-1.4c0.2-0.4,0.6-0.7,1-1c0.4-0.2,0.9-0.4,1.4-0.3
		c0.4,0,0.7,0.1,1.1,0.2c0.3,0.1,0.6,0.4,0.8,0.6v-3L160.8,80.4z M158.9,86.9c0.3-0.2,0.5-0.4,0.7-0.7c0.3-0.6,0.3-1.4,0-2
		c-0.1-0.3-0.4-0.5-0.7-0.7c-0.6-0.3-1.3-0.3-1.9,0c-0.3,0.2-0.5,0.4-0.7,0.7c-0.3,0.6-0.3,1.4,0,2c0.2,0.3,0.4,0.5,0.7,0.7
		C157.7,87.3,158.4,87.3,158.9,86.9z"/>
	<path class="st1" d="M167.4,85.6H163c0,0.4,0.3,0.9,0.6,1.1c0.4,0.3,0.8,0.5,1.3,0.4c0.6,0,1.2-0.2,1.6-0.7l0.5,0.6
		c-0.2,0.3-0.6,0.5-0.9,0.7c-0.9,0.3-1.9,0.3-2.7-0.1c-0.4-0.2-0.8-0.6-1-1c-0.2-0.4-0.4-0.9-0.4-1.4c0-0.5,0.1-1,0.4-1.4
		c0.2-0.4,0.6-0.8,1-1c0.4-0.2,0.9-0.4,1.4-0.4c0.5,0,1,0.1,1.4,0.4c0.4,0.2,0.7,0.6,0.9,1c0.2,0.4,0.3,0.9,0.3,1.4
		C167.4,85.4,167.4,85.5,167.4,85.6z M163.6,83.8c-0.3,0.3-0.5,0.7-0.6,1.1h3.5c0-0.4-0.2-0.8-0.6-1.1
		C165.3,83.2,164.3,83.2,163.6,83.8L163.6,83.8z"/>
	<path class="st1" d="M168.9,87.9c-0.3-0.1-0.7-0.2-1-0.5l0.4-0.8c0.3,0.2,0.6,0.3,0.9,0.4c0.3,0.1,0.7,0.2,1,0.2
		c0.9,0,1.3-0.2,1.3-0.7c0-0.1-0.1-0.3-0.2-0.4c-0.1-0.1-0.3-0.2-0.4-0.2c-0.2,0-0.4-0.1-0.7-0.1c-0.4-0.1-0.7-0.1-1.1-0.2
		c-0.3-0.1-0.5-0.2-0.7-0.4c-0.2-0.2-0.3-0.6-0.3-0.9c0-0.5,0.2-0.9,0.6-1.2c0.5-0.3,1.1-0.5,1.6-0.4c0.4,0,0.7,0,1.1,0.1
		c0.3,0.1,0.6,0.2,0.9,0.4l-0.4,0.8c-0.5-0.3-1-0.4-1.6-0.4c-0.3,0-0.7,0.1-0.9,0.2c-0.2,0.1-0.3,0.3-0.3,0.5c0,0.2,0.1,0.3,0.2,0.4
		c0.1,0.1,0.3,0.2,0.5,0.2c0.2,0,0.4,0.1,0.8,0.2c0.4,0.1,0.7,0.1,1.1,0.2c0.3,0.1,0.5,0.2,0.7,0.4c0.2,0.2,0.3,0.5,0.3,0.9
		c0,0.5-0.2,0.9-0.6,1.2c-0.4,0.3-1,0.4-1.7,0.4C169.8,88,169.4,88,168.9,87.9z"/>
	<path class="st2" d="M157.3,12.4c0.2-0.4,0.4-0.9,0.6-1.3h-2.6C156,11.5,156.7,11.9,157.3,12.4z"/>
	<path class="st2" d="M175.7,30.2h-2.9c-0.2,0-0.4,0-0.6,0c0.4,0.5,0.9,0.9,1.3,1.3c0.3,0.3,0.5,0.5,0.8,0.7
		c0.3,0.2,0.5,0.4,0.8,0.6c0.3,0.2,0.5,0.4,0.7,0.5c0.4,0.2,0.7,0.5,1,0.6c0.2,0.1,0.4,0.2,0.6,0.3c0.1,0.1,0.2,0.1,0.3,0.1
		c0.2,0.1,0.3,0.1,0.4,0.2c0.3,0.1,0.6,0.3,0.9,0.4l0.2,0.1c0.2,0,0.3,0.1,0.3,0.1l0.1,0h0l-3.1-5.3C176.3,30.1,176,30.2,175.7,30.2
		z"/>
	<path class="st3" d="M172.8,28.5h2.9l-3.1-5.2c-0.3,0-0.5,0-0.8,0c-2.2,0-4.3-0.6-5.5-1.7c-1-0.8-1.4-2.2-1.1-3.4
		c0.3-1.2,1.2-2.2,2.5-3.1l-1.5-2.5l0,0c-0.2-0.5-0.6-0.9-1-1.3c-0.1-0.1-0.3-0.2-0.4-0.3c-1.3-0.8-3-0.8-4.3,0.1
		c-0.2,0.1-0.4,0.3-0.6,0.5c-0.7,0.7-1.2,1.8-1.2,2.8l0,0c0,0.7,0.1,1.4,0.2,2.1c0,0.3,0.1,0.5,0.1,0.8c0.1,0.5,0.2,0.9,0.3,1.4
		c0.2,0.7,0.5,1.3,0.8,1.9c0.2,0.4,0.4,0.8,0.7,1.2c0.5,0.8,1,1.5,1.6,2.2C165,26.8,168.8,28.5,172.8,28.5z M162.3,14.6
		c-0.5,0-0.9-0.4-0.9-0.9s0.4-0.9,0.9-0.9c0.5,0,0.9,0.4,0.9,0.9C163.2,14.2,162.8,14.6,162.3,14.6L162.3,14.6z"/>
	<path class="st1" d="M162.3,12.8c-0.5,0-0.9,0.4-0.9,0.9s0.4,0.9,0.9,0.9c0.5,0,0.9-0.4,0.9-0.9c0,0,0,0,0,0
		C163.2,13.2,162.8,12.8,162.3,12.8z"/>
	<path class="st4" d="M184.5,8.7c0-0.1-0.1-0.2-0.1-0.3c0,0-0.1-0.1-0.1-0.1l0,0c0,0-0.1,0-0.1-0.1l-0.1,0c0,0-0.1,0-0.1,0l-0.1,0
		c0,0-0.1,0-0.1,0h-0.1c-0.1,0-0.2,0-0.3,0h0c-0.1,0-0.2,0-0.3,0.1l-0.1,0c-0.1,0-0.2,0.1-0.3,0.1l0,0c-0.1,0-0.2,0.1-0.3,0.1
		l-0.1,0c-0.1,0-0.2,0.1-0.3,0.1l-0.1,0c-0.1,0.1-0.2,0.1-0.4,0.2l-0.1,0c-0.1,0.1-0.2,0.1-0.3,0.2L181,9.2
		c-0.1,0.1-0.3,0.2-0.4,0.3c-1.1,1-2.6,2-4.3,2.8c-0.4,0.2-0.7,0.4-1.1,0.6c-1.7,0.8-3.4,1.6-4.8,2.4c-0.2,0.1-0.4,0.2-0.6,0.3
		l-0.4,0.2c-1,0.6-1.9,1.2-2.3,1.9c-0.2,0.3-0.3,0.6-0.4,0.9c-0.1,0.2-0.1,0.5,0,0.8c0.1,0.4,0.3,0.8,0.6,1.1
		c0.1,0.1,0.3,0.2,0.4,0.3l0,0c0.2,0.1,0.3,0.2,0.5,0.3l0,0c0.2,0.1,0.3,0.2,0.5,0.2h0c0.2,0.1,0.4,0.1,0.6,0.2h0
		c0.2,0.1,0.4,0.1,0.6,0.1h0c0.2,0,0.4,0.1,0.6,0.1h0c0.2,0,0.4,0,0.6,0.1h0c0.2,0,0.4,0,0.6,0h0.2h0.1h0.1h0.1c0,0,0.1,0,0.1,0
		l0.1,0l0.1,0l0.1,0l0.1,0l0.1,0c0,0,0.1,0,0.1,0l0.1,0h0l0.1,0c0,0,0.1,0,0.1,0l0.1,0l0.1,0l0.1,0c0,0,0.1,0,0.1,0l0.1,0l0.1,0
		l0.1,0l0.1,0l0.1-0.1c0,0,0,0,0.1,0c0,0,0,0,0.1-0.1c0,0,0,0,0.1,0s0,0,0.1-0.1c0,0,0,0,0,0c0,0,0-0.1,0-0.1c0,0,0,0,0,0
		c0,0,0-0.1,0-0.1c0-0.1,0-0.1,0-0.2c0-0.1,0-0.2-0.1-0.3c0-0.1-0.1-0.1-0.1-0.2l0,0c0.1,0,0.3,0,0.4,0h0.2c0.2,0,0.4,0,0.6-0.1
		c0.4,0,0.7-0.1,1.1-0.2c0.2-0.1,0.5-0.1,0.7-0.2c0.1,0,0.2-0.1,0.3-0.1c0.2-0.1,0.4-0.2,0.5-0.3c0.1,0,0.2-0.1,0.2-0.1
		c0.1-0.1,0.3-0.2,0.4-0.3c0.1,0,0.1-0.1,0.1-0.1c0.1-0.1,0.1-0.2,0.2-0.3c0-0.1,0.1-0.2,0-0.3c0-0.3-0.2-0.5-0.6-0.6
		c-0.2-0.1-0.5-0.2-0.7-0.3c0.7-0.1,1.4-0.3,2.1-0.7c0.2-0.1,0.5-0.2,0.7-0.3c0.2-0.1,0.3-0.2,0.5-0.3c0.5-0.3,0.9-0.6,1.2-1l0-0.1
		c0.2-0.2,0.4-0.5,0.4-0.9c0-0.1,0-0.2-0.1-0.3c0-0.1-0.1-0.1-0.1-0.1l0,0c0,0-0.1-0.1-0.1-0.1l0,0c-0.1,0-0.1-0.1-0.2-0.1l0,0
		c-0.1,0-0.1,0-0.2,0l-0.1,0c-0.1,0-0.1,0-0.2,0h0c-0.1,0-0.2,0-0.3,0l-0.2,0h-0.1c-0.1,0-0.3,0-0.4,0.1c0.4-0.2,0.8-0.5,1.1-0.8
		c0.2-0.2,0.4-0.4,0.6-0.6c0.2-0.2,0.4-0.4,0.5-0.6c0.6-0.8,1.1-1.5,1.1-2.1c0-0.1,0-0.1,0-0.2C184.5,8.8,184.5,8.8,184.5,8.7z"/>
	<path class="st1" d="M185.6,7.4c-0.5-0.6-1.2-0.9-2-0.8c-1.5,0-3.2,1.1-4,1.7c0,0-0.1,0.1-0.1,0.1c-1.6,1.5-4.2,2.8-6.8,4
		c-1.3,0.6-2.6,1.2-3.6,1.9l-1.5-2.5v0c-1.5-2.7-4.8-3.7-7.6-2.3c-0.1,0-0.2,0.1-0.3,0.2h-9.5c-0.4,0-0.8,0.3-0.8,0.8
		c0,0.4,0.3,0.8,0.8,0.8c2.4,0.2,5.4,1.7,6.8,3.1c0,0,0,0,0,0c0,7.6,5.4,14.1,12.8,15.5c5.1,6.3,9.2,6.9,9.7,6.9c0.1,0,0.1,0,0.2,0
		c0.9,0,1.6-0.7,1.6-1.6c0-0.3-0.1-0.6-0.2-0.8l-3.9-6.5c0,0,0-0.1-0.1-0.1l-2.8-4.7c1-0.3,1.7-0.8,2-1.5c1-0.1,2.1-0.4,3-0.9
		c1.7-0.9,1.9-2.1,1.8-2.7c1-0.4,1.8-1,2.6-1.8c1.4-1.4,1.2-2.6,0.9-3.2c-0.1-0.1-0.1-0.3-0.2-0.4c0.5-0.5,0.9-1,1.2-1.6
		C186.6,9,186,7.9,185.6,7.4z M157.3,12.4c-0.6-0.5-1.3-0.9-2-1.3h2.6C157.7,11.6,157.5,12,157.3,12.4z M162.3,23.9
		c-0.6-0.7-1.2-1.4-1.6-2.2c-0.2-0.4-0.5-0.8-0.7-1.2c-0.3-0.6-0.6-1.3-0.8-1.9c-0.1-0.4-0.3-0.9-0.3-1.4c-0.1-0.2-0.1-0.5-0.1-0.8
		l0,0c-0.1-0.7-0.2-1.4-0.2-2.1l0,0c0-1.1,0.4-2.1,1.2-2.8c0.2-0.2,0.4-0.3,0.6-0.5c0.9-0.6,2.1-0.8,3.2-0.5l0,0
		c0.4,0.1,0.8,0.3,1.1,0.5c0.1,0.1,0.3,0.2,0.4,0.3l0,0c0.4,0.3,0.8,0.8,1,1.3l0,0l1.5,2.5c-1.3,0.9-2.2,1.9-2.5,3.1
		c-0.3,1.3,0.1,2.6,1.1,3.4c1.2,1.1,3.3,1.7,5.5,1.7c0.3,0,0.5,0,0.8,0l3.1,5.2h-2.9C168.8,28.5,165,26.8,162.3,23.9L162.3,23.9z
		 M179.7,35.2L179.7,35.2L179.7,35.2c-0.2,0-0.3-0.1-0.4-0.1l-0.2-0.1c-0.3-0.1-0.6-0.2-0.9-0.4c-0.1-0.1-0.3-0.1-0.4-0.2
		c-0.1,0-0.2-0.1-0.3-0.1c-0.2-0.1-0.4-0.2-0.6-0.3c-0.3-0.2-0.7-0.4-1-0.6c-0.2-0.2-0.5-0.3-0.7-0.5c-0.3-0.2-0.5-0.4-0.8-0.6
		c-0.3-0.2-0.5-0.5-0.8-0.7c-0.4-0.4-0.8-0.8-1.3-1.3c0.2,0,0.4,0,0.6,0h2.9c0.3,0,0.6-0.1,0.8-0.2l0,0L179.7,35.2L179.7,35.2z
		 M184.5,9.1c-0.1,0.6-0.5,1.3-1.1,2.1c-0.2,0.2-0.3,0.4-0.5,0.6c-0.2,0.2-0.4,0.4-0.6,0.6c-0.3,0.3-0.7,0.6-1.1,0.8
		c0.1,0,0.3,0,0.4-0.1h0.1l0.2,0h0c0.1,0,0.2,0,0.2,0h0c0.1,0,0.2,0,0.2,0l0.1,0c0.1,0,0.1,0,0.2,0l0,0c0.1,0,0.1,0.1,0.2,0.1l0,0
		c0,0,0.1,0.1,0.1,0.1l0,0c0,0,0.1,0.1,0.1,0.1c0,0.1,0.1,0.2,0.1,0.3c0,0.3-0.2,0.6-0.4,0.9l0,0.1c-0.4,0.4-0.8,0.7-1.2,1
		c-0.2,0.1-0.3,0.2-0.5,0.3c-0.2,0.1-0.4,0.2-0.7,0.3c-0.7,0.3-1.4,0.5-2.1,0.7c0.3,0.1,0.5,0.1,0.7,0.3c0.3,0.2,0.5,0.4,0.6,0.6
		c0,0.1,0,0.2,0,0.3c0,0.1-0.1,0.2-0.2,0.3c0,0.1-0.1,0.1-0.1,0.1c-0.1,0.1-0.2,0.2-0.4,0.3c-0.1,0-0.1,0.1-0.2,0.1
		c-0.2,0.1-0.4,0.2-0.5,0.2c-0.1,0-0.2,0.1-0.3,0.1c-0.2,0.1-0.4,0.1-0.7,0.2c-0.4,0.1-0.7,0.2-1.1,0.2c-0.2,0-0.4,0-0.6,0.1h-0.2
		c-0.1,0-0.2,0-0.4,0h-0.1c0,0,0.1,0.1,0.1,0.2c0.1,0.1,0.1,0.2,0.1,0.3c0,0.1,0,0.1,0,0.2c0,0,0,0.1,0,0.1c0,0,0,0,0,0
		c0,0,0,0.1,0,0.1c0,0,0,0,0,0c0,0,0,0-0.1,0.1c0,0,0,0-0.1,0c0,0,0,0-0.1,0.1c0,0,0,0-0.1,0l-0.1,0.1l-0.1,0l-0.1,0l-0.1,0l-0.1,0
		c0,0-0.1,0-0.1,0l-0.1,0l-0.1,0l-0.1,0c0,0-0.1,0-0.1,0l-0.1,0h0l0,0l-0.1,0c0,0-0.1,0-0.1,0l-0.1,0l-0.1,0l-0.1,0l-0.1,0l-0.1,0
		c0,0-0.1,0-0.1,0h-0.1h-0.1H172h-0.2c-0.2,0-0.4,0-0.6,0h0c-0.2,0-0.4,0-0.6-0.1h0c-0.2,0-0.4-0.1-0.6-0.1h0
		c-0.2,0-0.4-0.1-0.6-0.1h0c-0.2-0.1-0.4-0.1-0.6-0.2h0c-0.2-0.1-0.4-0.1-0.5-0.2l0,0c-0.2-0.1-0.3-0.2-0.5-0.3l0,0
		c-0.1-0.1-0.3-0.2-0.4-0.3c-0.3-0.3-0.5-0.7-0.6-1.1c-0.1-0.2-0.1-0.5,0-0.8c0.1-0.3,0.2-0.6,0.4-0.9c0.5-0.7,1.3-1.3,2.3-1.9
		l0.4-0.2l0,0c0.2-0.1,0.4-0.2,0.6-0.3c1.5-0.8,3.2-1.6,4.8-2.4c0.4-0.2,0.7-0.4,1.1-0.6c1.6-0.9,3.2-1.8,4.3-2.8
		c0.1-0.1,0.3-0.2,0.4-0.3l0.1-0.1c0.1-0.1,0.2-0.1,0.3-0.2l0.1,0c0.1-0.1,0.2-0.1,0.4-0.2l0.1,0c0.1,0,0.2-0.1,0.3-0.1l0.1,0
		c0.1,0,0.2-0.1,0.3-0.1l0,0c0.1,0,0.2-0.1,0.3-0.1l0.1,0c0.1,0,0.2,0,0.3-0.1h0c0.1,0,0.2,0,0.3,0h0.1c0,0,0.1,0,0.1,0l0.1,0
		c0,0,0.1,0,0.1,0l0.1,0c0,0,0.1,0,0.1,0.1l0,0c0,0,0.1,0.1,0.1,0.1c0.1,0.1,0.1,0.2,0.1,0.3c0,0.1,0,0.1,0,0.2
		C184.5,9,184.5,9,184.5,9.1L184.5,9.1z"/>
</g>
</svg>
