<svg id="Crearte" xmlns="http://www.w3.org/2000/svg" viewBox="0 0 982.37 441.86"><defs><style>.cls-1{fill:#fff;}.cls-2{fill:#1a1a1a;}.cls-3{fill:#ff5a5a;}.cls-4{fill:#ff91c3;}.cls-5{fill:#ffd737;}</style></defs><g id="Crearte-2" data-name="Crearte"><path class="cls-1" d="M969.36,253.55a70.8,70.8,0,0,0,3-11.79l.06-.35c3.9-24.71-5.38-47.63-26.15-64.54a89.4,89.4,0,0,0-25-14.37A40.24,40.24,0,0,0,917,152.21l-15.74-26.34a47.18,47.18,0,0,0,15.52-17.35,67.63,67.63,0,0,0,8.5-7.28c10.46-10.65,14.42-22.43,14.55-33,11.72-21.71,5.76-41.46-3.75-52.72A44.32,44.32,0,0,0,902,0h0c-15.39,0-28.84,7.34-37.75,13.85a45.35,45.35,0,0,0-3.62,2.79c-.48.38-.94.77-1.41,1.16s-1.23,1.05-1.85,1.61l-1,.68a143.1,143.1,0,0,1-15.37,8.41,59.62,59.62,0,0,0-35.71-17.35,40.29,40.29,0,0,0-5.74-.41H738.07a40,40,0,0,0-3.62,79.83,35,35,0,0,1,7.16,2.62,109,109,0,0,0,7.24,22.15,40,40,0,0,0-14,12.37L726.21,140l-.51.74c-2.11,3.16-6.48,8.38-15.32,15.27-3.55,2.77-5.86,3.7-6.56,3.86h-.64a43.6,43.6,0,0,0-12.36,1.78,86.18,86.18,0,0,0-29.49-5.07c-1.28,0-2.56.07-3.84.19a79.48,79.48,0,0,0-9.79,1.56,40,40,0,0,0-20.83-5.85,39.58,39.58,0,0,0-9.7,1.2l-57.44,14.35a40.35,40.35,0,0,0-12,5.24c-.92-.54-1.82-1.12-2.76-1.63a123.05,123.05,0,0,0-30.56-11.79,134.31,134.31,0,0,0-29.87-3.27,102.36,102.36,0,0,0-34.82,6.54c-2.19-15-10.06-35.36-34.27-51.51-16.91-11.27-36.59-17-58.5-17-35.74,0-67.92,15.14-93.05,43.78q-6,6.87-11.34,14.16c-1.13.19-2.25.42-3.37.7l-41,10.25A98.25,98.25,0,0,0,184,140.76c-18.54-12.36-40.29-18.62-64.66-18.62-33.69,0-63,12.37-84.7,35.76C14.21,179.94,2.65,206.56.3,237c0,.25,0,.5,0,.76-2,34.13,7.54,64.08,28.25,89,20.87,25.14,50.51,39.88,85.71,42.62,1,.08,2.07.12,3.11.12h5.33a114.85,114.85,0,0,0,54.08-13.06A40,40,0,0,0,201.42,365h65.65a40,40,0,0,0,27.83-11.28c16.43,8.84,35.26,13.33,56.27,13.33l1.53,0A102.11,102.11,0,0,0,405,350.79q1.44,1.24,3,2.43c13.69,10.55,31.84,15.9,53.95,15.9.82,0,1.63,0,2.45-.07a86.38,86.38,0,0,0,33.4-8.75,67,67,0,0,0,27.34,5.54h32a40.54,40.54,0,0,0,7.49-.71,40.33,40.33,0,0,0,4.81.3h65.65a40,40,0,0,0,35.15-59.09,24.32,24.32,0,0,1-2.75-7.17,40.41,40.41,0,0,0,8.16.82,40,40,0,0,0,5.49-.41c3.25,18.23,10.58,33.47,21.94,45.46s32.22,26.13,67.81,26.13c1,0,2,0,3-.11,18.77-1.41,35.12-8.49,47.78-20.6,18.23,12.38,40,18.66,64.92,18.66.52,0,1,0,1.55,0a101.3,101.3,0,0,0,61.17-22.84c18.94-15.34,30.3-35.48,32.83-58.24a38.57,38.57,0,0,0,.25-4.43A41.15,41.15,0,0,0,969.36,253.55ZM902,40l.25,0H902Zm-448,204.52,0,0h.08A.05.05,0,0,1,454.05,244.52ZM675.64,260a1.06,1.06,0,0,1-.56-.2q.61.4,1,0A.65.65,0,0,1,675.64,260Z"/><path class="cls-2" d="M183.78,276.61c1.37-2.19,2.87-3.28,4.52-3.28q4.09,0,2.46,7-4.53,21.75-24,35.49a74.66,74.66,0,0,1-44.11,13.74h-5.33q-36.93-2.86-58.06-28.31T40.19,240.09q2.46-32,23.79-55t55.39-23q24.62,0,42.46,11.9t25.23,35.28a2.83,2.83,0,0,1-1.23,3.7q-2.87,1.64-18.66,11.48t-21.54,12.72h-.41a1.17,1.17,0,0,1-.82.41c-2.2,0-3.29-1.23-3.29-3.69q1.63-24.21-3.07-43.49t-16.21-20.1q-11.91,0-18.87,12.51a71.08,71.08,0,0,0-8.62,26.87q-4.92,37.76,6.77,66.47t39.18,29.95q12.72,0,25.23-8.82T183.78,276.61Z"/><path class="cls-2" d="M259.27,271.27v25.44q0,13.95,7.8,28.31H201.42q7.79-14.36,7.8-28.31V234.76q0-13.95-7.8-28.31l57.44-14.36.41,41.85a150.05,150.05,0,0,1,34.67-69.13q26.46-30.17,63-30.16,20.91,0,36.31,10.26t17,25a27.88,27.88,0,0,1-2.87,15.18q-3.69,7.8-9,9.84-15.18-22.15-46.77-22.15-38.15,0-63.38,29.33T259.27,271.27Zm145.65,10.26.82-.41a1.09,1.09,0,0,1,1.23,1.23q-2.06,18.06-18.26,31a62.51,62.51,0,0,1-37.54,13.74q-29.54,0-48.82-16.41t-20.92-45.54A68.22,68.22,0,0,1,295.78,219q15.6-20.31,48-21.54a22.85,22.85,0,0,0,2.87-.2,25,25,0,0,1,2.87-.21q21.75,0,36.11,11.49t11.89,26.67q-2.86,17.64-23.38,26.87a132.76,132.76,0,0,1-42.26,11.29q14,20.52,38.56,20.51Q392.62,293.84,404.92,281.53Zm-82.47-44.72q0,18.06,7,32,9-2.87,17.23-11.69a40.33,40.33,0,0,0,10.26-21.54q1.63-9.44-2.47-20.31T341.74,204q-8.62-.41-13.75,10.26A55.88,55.88,0,0,0,322.45,236.81Z"/><path class="cls-2" d="M557.13,325.84h-32q-20.52,0-23.39-21.33-5.34,9-15.79,16.41a45.61,45.61,0,0,1-24,8.2q-39.37,0-39.38-30.36a41.46,41.46,0,0,1,10.66-27.9,65.16,65.16,0,0,1,25.85-18.25q15.18-6,25.44-8.82a85.79,85.79,0,0,1,16.41-3.29q4.09-35.68-18.46-35.69H480q-11.49,1.23-18.26,13.13a54,54,0,0,0-7.18,25.43c0,1.38-.55,1.51-1.64.42q-2.06-3.28-8.41-11.49t-7.18-9.44c-.82-.82-.82-1.91,0-3.28q7.38-11.09,21.33-17t25.85-6a93.69,93.69,0,0,1,20.92,2.26,82.61,82.61,0,0,1,20.52,8q10.66,5.74,17,18.67t6.36,31.38v41.85Q549.33,310.25,557.13,325.84ZM478.77,312.3a6.89,6.89,0,0,0,2.87.41q9.84,0,19.69-13.13a12.55,12.55,0,0,1-.41-3.69V244.2q-10.26,2.87-21.33,13.94t-12.31,29.55Q465.63,309.43,478.77,312.3Z"/><path class="cls-2" d="M698.26,215.89a3,3,0,0,1-.41,3.28q-1.23,2.06-10.26,19.9T676.1,259.79q-.4.4-1,0c-.41-.27-.62-.55-.62-.83a115,115,0,0,0-5.54-31.79Q663.79,211,654.36,211a3.29,3.29,0,0,0-1,.21,3.24,3.24,0,0,1-1,.2q-9,1.23-16.62,13.95t-8.41,34.47v37.33q0,14,7.8,28.31H569.43q7.8-14.35,7.8-28.31v-62q0-13.95-7.8-28.31l57.44-14.36v30.77Q640,198.66,661.33,196.6,684.71,196.6,698.26,215.89Z"/><path class="cls-2" d="M700.72,202.35a2.17,2.17,0,0,1,2.46-2.46H704q15.18,0,31-12.31T759,163l8.61-12.31,1.65-.82v50.06h29.12a2.18,2.18,0,0,1,2.47,2.46V204a2.18,2.18,0,0,1-2.47,2.46H769.24v63.18q.39,32.42,18.87,32.83,9.84,0,15.59-9.85c.54-.55.95-.82,1.23-.82a1.45,1.45,0,0,1,1.64,1.64,40.31,40.31,0,0,1-9.85,25.23q-9.44,11.29-25.84,12.51-51.71,0-51.7-54.56l.41-70.16H703.18a2.17,2.17,0,0,1-2.46-2.46Z"/><path class="cls-2" d="M940.32,282.76l.82-.41a1.09,1.09,0,0,1,1.23,1.23q-2.05,18.46-18.26,31.59a61.84,61.84,0,0,1-37.54,13.95q-30,0-49-16.82t-20.72-46.36a70.41,70.41,0,0,1,14.36-47q15.6-20.7,48.42-22.36a26,26,0,0,0,2.66-.2,26.71,26.71,0,0,1,2.67-.21q21.74,0,36.1,11.7t11.9,27.28a32.17,32.17,0,0,1-9,17.44,52,52,0,0,1-18.06,11.89,141,141,0,0,1-20.1,6.57,131.21,131.21,0,0,1-18,3.08q13.13,21.33,38.56,21.33Q927.59,295.48,940.32,282.76Zm-82.06-45.95q-.82,18.87,7,32.82,9-2.86,17-11.9a42.37,42.37,0,0,0,10-22.15q1.63-9.44-2.46-20.72t-12.72-11.69q-8.61-.4-13.53,10.67A61,61,0,0,0,858.26,236.81Z"/><path class="cls-2" d="M160.94,423.41h-18.6l-3.85,8.75h-5.15l15.85-35h4.95l15.91,35H164.8Zm-1.75-4-7.55-17.15-7.55,17.15Z"/><path class="cls-2" d="M182.34,406.61a13.46,13.46,0,0,1,5.95-1.2v4.65a9.54,9.54,0,0,0-7.22,2.27,9.23,9.23,0,0,0-2.23,6.63v13.2H174v-26.5h4.6v4.45A8.2,8.2,0,0,1,182.34,406.61Z"/><path class="cls-2" d="M209.69,430.61a7.15,7.15,0,0,1-2.6,1.37,10.74,10.74,0,0,1-3.2.48,8.51,8.51,0,0,1-6.2-2.15,8.22,8.22,0,0,1-2.2-6.15V409.61H191v-3.95h4.5v-5.8h4.8v5.8h7.6v3.95h-7.6V424a4.65,4.65,0,0,0,1.08,3.3,4,4,0,0,0,3.07,1.15,5.79,5.79,0,0,0,3.75-1.25Z"/><path class="cls-2" d="M220.44,395.31h6.1l-8.4,6.5h-4.5ZM215,405.66h4.8v26.5H215Z"/><path class="cls-2" d="M232.77,430.71a12.85,12.85,0,0,1-5-4.83,14.41,14.41,0,0,1,0-13.95,12.64,12.64,0,0,1,5-4.8,14.85,14.85,0,0,1,7.22-1.72,13.87,13.87,0,0,1,6.43,1.45,10.24,10.24,0,0,1,4.37,4.2l-3.65,2.35a8.1,8.1,0,0,0-3.1-2.85,8.75,8.75,0,0,0-4.1-.95,9.43,9.43,0,0,0-4.67,1.15A8.06,8.06,0,0,0,232,414a9.85,9.85,0,0,0-1.18,4.88,10,10,0,0,0,1.18,4.92,8.14,8.14,0,0,0,3.25,3.28,9.53,9.53,0,0,0,4.67,1.15,8.87,8.87,0,0,0,4.1-.95,8.26,8.26,0,0,0,3.1-2.85l3.65,2.3a10.46,10.46,0,0,1-4.37,4.22,13.76,13.76,0,0,1-6.43,1.48A14.75,14.75,0,0,1,232.77,430.71Z"/><path class="cls-2" d="M281.19,405.66v26.5h-4.55v-4a9.72,9.72,0,0,1-3.82,3.17,12,12,0,0,1-5.18,1.13c-3.53,0-6.32-1-8.35-2.93s-3.05-4.82-3.05-8.62V405.66H261v14.7a8.25,8.25,0,0,0,1.85,5.82,6.89,6.89,0,0,0,5.3,2,7.93,7.93,0,0,0,6-2.3,9,9,0,0,0,2.2-6.5v-13.7Z"/><path class="cls-2" d="M289.84,395.06h4.8v37.1h-4.8Z"/><path class="cls-2" d="M307.54,430.71a12.69,12.69,0,0,1-4.92-4.83,14.56,14.56,0,0,1,0-13.95,12.48,12.48,0,0,1,4.92-4.8,14.54,14.54,0,0,1,7.1-1.72,14.37,14.37,0,0,1,7.07,1.72,12.59,12.59,0,0,1,4.91,4.8,14.63,14.63,0,0,1,0,13.95,12.8,12.8,0,0,1-4.91,4.83,14.28,14.28,0,0,1-7.07,1.75A14.45,14.45,0,0,1,307.54,430.71Zm11.67-3.63a8.28,8.28,0,0,0,3.18-3.3,10.91,10.91,0,0,0,0-9.75,8.08,8.08,0,0,0-3.18-3.27,9.68,9.68,0,0,0-9.15,0,8.17,8.17,0,0,0-3.19,3.27,10.66,10.66,0,0,0,0,9.75,8.38,8.38,0,0,0,3.19,3.3,9.46,9.46,0,0,0,9.15,0Z"/><path class="cls-2" d="M335.89,431.58a13.63,13.63,0,0,1-4.7-2.22l2-3.8a14.44,14.44,0,0,0,4.25,2,17.5,17.5,0,0,0,5.05.75q6.3,0,6.3-3.6a2.31,2.31,0,0,0-.85-1.9,5.43,5.43,0,0,0-2.13-1c-.85-.22-2.05-.46-3.62-.72a37.07,37.07,0,0,1-5.23-1.15,8.21,8.21,0,0,1-3.47-2.2,6.13,6.13,0,0,1-1.45-4.35,6.8,6.8,0,0,1,3-5.78,13.43,13.43,0,0,1,8-2.17,21.84,21.84,0,0,1,5.3.65,13.94,13.94,0,0,1,4.35,1.75l-2.05,3.8a13.8,13.8,0,0,0-7.65-2.1,8.83,8.83,0,0,0-4.65,1,3,3,0,0,0-1.6,2.65,2.54,2.54,0,0,0,.9,2,5.78,5.78,0,0,0,2.22,1.1c.89.23,2.13.5,3.73.8a38.67,38.67,0,0,1,5.17,1.17,7.75,7.75,0,0,1,3.38,2.13,5.93,5.93,0,0,1,1.4,4.2,6.64,6.64,0,0,1-3.07,5.72q-3.09,2.13-8.38,2.13A22.31,22.31,0,0,1,335.89,431.58Z"/><path class="cls-2" d="M393,407.11a12.2,12.2,0,0,1,4.78,4.75,14.16,14.16,0,0,1,1.72,7.05,14.32,14.32,0,0,1-1.72,7.07,12.27,12.27,0,0,1-4.78,4.78,14,14,0,0,1-6.9,1.7,12.3,12.3,0,0,1-5.22-1.1,10.9,10.9,0,0,1-4-3.2v13.7H372v-36.2h4.6v4.2a10.22,10.22,0,0,1,4.05-3.33,12.76,12.76,0,0,1,5.4-1.12A13.84,13.84,0,0,1,393,407.11Zm-2.72,20a8.38,8.38,0,0,0,3.19-3.3,10.66,10.66,0,0,0,0-9.75,8.17,8.17,0,0,0-3.19-3.27,9.11,9.11,0,0,0-4.58-1.15,8.92,8.92,0,0,0-4.53,1.17,8.55,8.55,0,0,0-3.2,3.28,9.78,9.78,0,0,0-1.17,4.85,10,10,0,0,0,1.15,4.87,8.2,8.2,0,0,0,3.2,3.3,9.42,9.42,0,0,0,9.13,0Z"/><path class="cls-2" d="M423.46,408.11q2.93,2.7,2.93,8.05v16h-4.55v-3.5a7.58,7.58,0,0,1-3.43,2.82,13,13,0,0,1-5.27,1,11.08,11.08,0,0,1-7.13-2.15,7.4,7.4,0,0,1-.12-11.28c1.7-1.42,4.4-2.12,8.1-2.12h7.6v-1a6.12,6.12,0,0,0-1.8-4.75,7.6,7.6,0,0,0-5.3-1.65,13.92,13.92,0,0,0-4.6.77,11.82,11.82,0,0,0-3.8,2.08l-2-3.6a14.49,14.49,0,0,1,4.9-2.53,20.63,20.63,0,0,1,6.05-.87C418.71,405.41,421.51,406.31,423.46,408.11Zm-4.77,19.42a7,7,0,0,0,2.9-3.47v-3.7h-7.4c-4.07,0-6.1,1.36-6.1,4.1a3.73,3.73,0,0,0,1.55,3.15,7.13,7.13,0,0,0,4.3,1.15A8.89,8.89,0,0,0,418.69,427.53Z"/><path class="cls-2" d="M443.09,406.61a13.43,13.43,0,0,1,6-1.2v4.65a9.57,9.57,0,0,0-7.23,2.27,9.22,9.22,0,0,0-2.22,6.63v13.2h-4.8v-26.5h4.6v4.45A8.16,8.16,0,0,1,443.09,406.61Z"/><path class="cls-2" d="M472.46,408.11q2.93,2.7,2.93,8.05v16h-4.55v-3.5a7.58,7.58,0,0,1-3.43,2.82,13,13,0,0,1-5.27,1,11.08,11.08,0,0,1-7.13-2.15,7.4,7.4,0,0,1-.12-11.28c1.7-1.42,4.4-2.12,8.1-2.12h7.6v-1a6.12,6.12,0,0,0-1.8-4.75,7.6,7.6,0,0,0-5.3-1.65,13.92,13.92,0,0,0-4.6.77,11.82,11.82,0,0,0-3.8,2.08l-2-3.6a14.49,14.49,0,0,1,4.9-2.53,20.58,20.58,0,0,1,6.05-.87C467.71,405.41,470.51,406.31,472.46,408.11Zm-4.77,19.42a7,7,0,0,0,2.9-3.47v-3.7h-7.4c-4.07,0-6.1,1.36-6.1,4.1a3.73,3.73,0,0,0,1.55,3.15,7.13,7.13,0,0,0,4.3,1.15A8.89,8.89,0,0,0,467.69,427.53Z"/><path class="cls-2" d="M537.81,408.31q2.93,2.9,2.93,8.6v15.25h-4.8v-14.7q0-3.85-1.78-5.8a6.5,6.5,0,0,0-5.07-2,7.57,7.57,0,0,0-5.8,2.27c-1.44,1.52-2.15,3.69-2.15,6.53v13.65h-4.8v-14.7q0-3.85-1.78-5.8a6.5,6.5,0,0,0-5.07-2,7.57,7.57,0,0,0-5.8,2.27c-1.44,1.52-2.15,3.69-2.15,6.53v13.65h-4.8v-26.5h4.6v3.95a9.25,9.25,0,0,1,3.8-3.13,12.68,12.68,0,0,1,5.35-1.07,11.67,11.67,0,0,1,5.5,1.25,8.69,8.69,0,0,1,3.7,3.65,10.06,10.06,0,0,1,4.17-3.6,13.58,13.58,0,0,1,6-1.3A10.73,10.73,0,0,1,537.81,408.31Z"/><path class="cls-2" d="M567.16,408.11q2.93,2.7,2.93,8.05v16h-4.55v-3.5a7.58,7.58,0,0,1-3.43,2.82,13,13,0,0,1-5.27,1,11.08,11.08,0,0,1-7.13-2.15,7.4,7.4,0,0,1-.12-11.28c1.7-1.42,4.4-2.12,8.1-2.12h7.6v-1a6.12,6.12,0,0,0-1.8-4.75,7.6,7.6,0,0,0-5.3-1.65,13.92,13.92,0,0,0-4.6.77,11.82,11.82,0,0,0-3.8,2.08l-2-3.6a14.4,14.4,0,0,1,4.9-2.53,20.58,20.58,0,0,1,6-.87Q564.23,405.41,567.16,408.11Zm-4.77,19.42a7,7,0,0,0,2.9-3.47v-3.7h-7.4c-4.07,0-6.1,1.36-6.1,4.1a3.7,3.7,0,0,0,1.55,3.15,7.11,7.11,0,0,0,4.3,1.15A8.91,8.91,0,0,0,562.39,427.53Z"/><path class="cls-2" d="M600.66,408.33c2,1.95,3,4.81,3,8.58v15.25h-4.8v-14.7q0-3.85-1.85-5.8a7,7,0,0,0-5.3-2,8.24,8.24,0,0,0-6.15,2.27,8.9,8.9,0,0,0-2.25,6.53v13.65h-4.8v-26.5h4.6v4a9.22,9.22,0,0,1,3.92-3.15,13.63,13.63,0,0,1,5.63-1.1A10.94,10.94,0,0,1,600.66,408.33Z"/><path class="cls-2" d="M636.74,405.66v26.5h-4.55v-4a9.68,9.68,0,0,1-3.83,3.17,11.93,11.93,0,0,1-5.17,1.13q-5.31,0-8.35-2.93c-2-1.95-3.05-4.82-3.05-8.62V405.66h4.8v14.7c0,2.56.61,4.5,1.85,5.82a6.89,6.89,0,0,0,5.3,2,7.93,7.93,0,0,0,6-2.3,9.07,9.07,0,0,0,2.2-6.5v-13.7Z"/><path class="cls-2" d="M663.46,408.11q2.92,2.7,2.93,8.05v16h-4.55v-3.5a7.63,7.63,0,0,1-3.43,2.82,13,13,0,0,1-5.27,1,11.08,11.08,0,0,1-7.13-2.15,7.4,7.4,0,0,1-.12-11.28c1.7-1.42,4.4-2.12,8.1-2.12h7.6v-1a6.12,6.12,0,0,0-1.8-4.75,7.6,7.6,0,0,0-5.3-1.65,13.92,13.92,0,0,0-4.6.77,11.82,11.82,0,0,0-3.8,2.08l-2-3.6a14.4,14.4,0,0,1,4.9-2.53,20.58,20.58,0,0,1,6-.87Q660.53,405.41,663.46,408.11Zm-4.77,19.42a7,7,0,0,0,2.9-3.47v-3.7h-7.4c-4.07,0-6.1,1.36-6.1,4.1a3.7,3.7,0,0,0,1.55,3.15,7.11,7.11,0,0,0,4.3,1.15A8.91,8.91,0,0,0,658.69,427.53Z"/><path class="cls-2" d="M674.79,395.06h4.8v37.1h-4.8Z"/><path class="cls-2" d="M688.31,399.66a3,3,0,0,1-.93-2.2,3,3,0,0,1,.93-2.23,3.14,3.14,0,0,1,2.32-.92,3.27,3.27,0,0,1,2.33.87,2.86,2.86,0,0,1,.92,2.18,3.07,3.07,0,0,1-.92,2.27,3.15,3.15,0,0,1-2.33.93A3.2,3.2,0,0,1,688.31,399.66Zm-.08,6H693v26.5h-4.81Z"/><path class="cls-2" d="M726.68,395.06v37.1h-4.6V428a10.43,10.43,0,0,1-4,3.35,12.7,12.7,0,0,1-5.41,1.15,14,14,0,0,1-6.9-1.7A12.25,12.25,0,0,1,701,426a14.21,14.21,0,0,1-1.73-7.07,14.06,14.06,0,0,1,1.73-7.05,12.17,12.17,0,0,1,4.77-4.75,13.89,13.89,0,0,1,6.9-1.7,12.57,12.57,0,0,1,5.25,1.07,10.19,10.19,0,0,1,4,3.18v-14.6Zm-9.1,32a8.23,8.23,0,0,0,3.21-3.3,11,11,0,0,0,0-9.75,8,8,0,0,0-3.21-3.27,9.62,9.62,0,0,0-9.12,0,8.19,8.19,0,0,0-3.2,3.27,10.66,10.66,0,0,0,0,9.75,8.4,8.4,0,0,0,3.2,3.3,9.4,9.4,0,0,0,9.12,0Z"/><path class="cls-2" d="M753.36,408.11q2.92,2.7,2.92,8.05v16h-4.55v-3.5a7.6,7.6,0,0,1-3.42,2.82,13.06,13.06,0,0,1-5.28,1,11.05,11.05,0,0,1-7.12-2.15,7.39,7.39,0,0,1-.13-11.28c1.7-1.42,4.4-2.12,8.1-2.12h7.6v-1a6.12,6.12,0,0,0-1.8-4.75,7.58,7.58,0,0,0-5.3-1.65,14,14,0,0,0-4.6.77,11.93,11.93,0,0,0-3.8,2.08l-2-3.6a14.49,14.49,0,0,1,4.9-2.53,20.63,20.63,0,0,1,6-.87Q750.44,405.41,753.36,408.11Zm-4.78,19.42a7,7,0,0,0,2.9-3.47v-3.7h-7.4c-4.06,0-6.1,1.36-6.1,4.1a3.73,3.73,0,0,0,1.55,3.15,7.15,7.15,0,0,0,4.3,1.15A8.86,8.86,0,0,0,748.58,427.53Z"/><path class="cls-2" d="M789.83,395.06v37.1h-4.6V428a10.39,10.39,0,0,1-4.05,3.35,12.63,12.63,0,0,1-5.4,1.15,14,14,0,0,1-6.9-1.7,12.25,12.25,0,0,1-4.77-4.78,14.21,14.21,0,0,1-1.73-7.07,14.06,14.06,0,0,1,1.73-7.05,12.17,12.17,0,0,1,4.77-4.75,13.87,13.87,0,0,1,6.9-1.7,12.64,12.64,0,0,1,5.25,1.07,10.26,10.26,0,0,1,4,3.18v-14.6Zm-9.1,32a8.14,8.14,0,0,0,3.2-3.3,10.91,10.91,0,0,0,0-9.75,7.94,7.94,0,0,0-3.2-3.27,9.62,9.62,0,0,0-9.12,0,8.19,8.19,0,0,0-3.2,3.27,10.66,10.66,0,0,0,0,9.75,8.4,8.4,0,0,0,3.2,3.3,9.4,9.4,0,0,0,9.12,0Z"/><path class="cls-2" d="M822.28,420.51h-21.5a8.33,8.33,0,0,0,3.08,5.62,10,10,0,0,0,6.52,2.13,9.83,9.83,0,0,0,7.65-3.2l2.65,3.1a11.68,11.68,0,0,1-4.47,3.2,16.86,16.86,0,0,1-13.43-.63,12.34,12.34,0,0,1-5-4.82,13.78,13.78,0,0,1-1.78-7,14,14,0,0,1,1.73-7,12.33,12.33,0,0,1,4.75-4.83,13.5,13.5,0,0,1,6.82-1.72,13.3,13.3,0,0,1,6.78,1.72,12.15,12.15,0,0,1,4.65,4.83,14.74,14.74,0,0,1,1.67,7.1A13,13,0,0,1,822.28,420.51Zm-18.77-8.95a8.48,8.48,0,0,0-2.73,5.5h17a8.49,8.49,0,0,0-2.72-5.48,9,9,0,0,0-11.55,0Z"/><path class="cls-2" d="M829.88,431.58a13.63,13.63,0,0,1-4.7-2.22l2-3.8a14.56,14.56,0,0,0,4.25,2,17.5,17.5,0,0,0,5.05.75q6.3,0,6.3-3.6a2.31,2.31,0,0,0-.85-1.9,5.32,5.32,0,0,0-2.12-1q-1.27-.33-3.63-.72a36.89,36.89,0,0,1-5.22-1.15,8.18,8.18,0,0,1-3.48-2.2,6.18,6.18,0,0,1-1.45-4.35,6.8,6.8,0,0,1,3-5.78,13.43,13.43,0,0,1,8.05-2.17,21.78,21.78,0,0,1,5.3.65,13.94,13.94,0,0,1,4.35,1.75l-2.05,3.8a13.78,13.78,0,0,0-7.65-2.1,8.83,8.83,0,0,0-4.65,1,3,3,0,0,0-1.6,2.65,2.54,2.54,0,0,0,.9,2,5.76,5.76,0,0,0,2.23,1.1c.88.23,2.12.5,3.72.8a38.86,38.86,0,0,1,5.18,1.17,7.77,7.77,0,0,1,3.37,2.13,5.89,5.89,0,0,1,1.4,4.2,6.61,6.61,0,0,1-3.07,5.72c-2,1.42-4.85,2.13-8.38,2.13A22.31,22.31,0,0,1,829.88,431.58Z"/><path class="cls-3" d="M772.88,61A27.15,27.15,0,0,1,776,54.83H763A65.14,65.14,0,0,1,772.88,61Z"/><path class="cls-3" d="M863.14,148.1h-14.2c-1.06,0-2.11,0-3.16-.08q3.22,3.54,6.28,6.43c1.36,1.3,2.7,2.51,4,3.64s2.58,2.16,3.81,3.12,2.44,1.85,3.6,2.66c1.73,1.21,3.38,2.26,4.93,3.17,1,.61,2,1.15,3,1.64.47.25.93.48,1.37.69.75.37,1.46.69,2.14,1a44.27,44.27,0,0,0,4.61,1.72l1,.29c.76.2,1.32.32,1.68.39l.37.06h.09L867.2,147A7.94,7.94,0,0,1,863.14,148.1Z"/><path class="cls-4" d="M848.94,140.1h14.2l-15.37-25.67c-1.25.08-2.56.13-3.92.13-11.05,0-21.19-3.17-27.12-8.47a17.2,17.2,0,0,1-5.51-16.83c1.46-6,6-10.84,12.35-15.28L816.1,61.5h0a19.69,19.69,0,0,0-5-6.23A20.15,20.15,0,0,0,809,53.8a19.56,19.56,0,0,0-21.24.36,20.05,20.05,0,0,0-2.89,2.39,19.45,19.45,0,0,0-5.71,13.8h0A70.77,70.77,0,0,0,780,80.71c.19,1.24.4,2.48.65,3.69.46,2.27,1,4.5,1.71,6.69a69.73,69.73,0,0,0,3.75,9.5c1,2,2,4,3.22,5.92a70.29,70.29,0,0,0,8,10.74A69.59,69.59,0,0,0,848.94,140.1ZM797.27,71.92a4.46,4.46,0,1,1,4.46-4.46A4.46,4.46,0,0,1,797.27,71.92Z"/><path class="cls-2" d="M797.27,63a4.46,4.46,0,1,0,4.46,4.45A4.46,4.46,0,0,0,797.27,63Z"/><path class="cls-5" d="M906.21,42.86a3.26,3.26,0,0,0-.7-1.46,2.8,2.8,0,0,0-.6-.54l-.23-.14a4,4,0,0,0-.51-.25l-.32-.11a4.58,4.58,0,0,0-.56-.14l-.37-.06a6.39,6.39,0,0,0-.64,0h-.37a10,10,0,0,0-1.3.09l-.22,0c-.4.07-.81.15-1.23.26l-.43.11c-.45.12-.91.26-1.39.43l-.18.06c-.53.19-1.08.42-1.64.66l-.47.21c-.45.21-.91.43-1.37.67l-.43.22c-.58.31-1.17.64-1.77,1l-.37.23c-.5.3-1,.62-1.5.95l-.51.35c-.61.42-1.23.86-1.85,1.33-5.4,5.15-12.87,9.69-20.89,13.91-1.78.93-3.59,1.85-5.41,2.76-8.2,4.08-16.62,7.89-23.76,11.71-.93.5-1.84,1-2.73,1.51l-1.83,1c-5,3-9.14,6-11.54,9.25a11.88,11.88,0,0,0-2.1,4.25,8.19,8.19,0,0,0,0,3.69,9.81,9.81,0,0,0,3.12,5.28,17.91,17.91,0,0,0,2,1.55l0,0a22.67,22.67,0,0,0,2.33,1.31l0,0a25.52,25.52,0,0,0,2.56,1.08l.07,0c.88.33,1.79.61,2.72.87l.09,0c.92.26,1.87.47,2.83.66l.11,0c1,.18,1.92.33,2.88.45l.14,0c1,.12,1.92.21,2.87.27h.16c.94.06,1.88.09,2.8.09h1l.72,0,.73,0,.7,0c.24,0,.48,0,.72-.06l.67-.05.69-.08.66-.08.64-.1.64-.11c.21,0,.4-.08.6-.12l.46-.09.16,0,.56-.14c.2,0,.4-.09.59-.15l.54-.16.53-.16.49-.19c.17-.06.33-.11.49-.18l.44-.2.44-.2.4-.22.39-.22.35-.26a3.62,3.62,0,0,0,.32-.22c.11-.09.2-.19.3-.28s.18-.15.25-.23.17-.22.26-.33.12-.14.17-.22a2.69,2.69,0,0,0,.19-.38c0-.07.08-.13.11-.2a3.3,3.3,0,0,0,.15-.62,3.14,3.14,0,0,0,0-.75,4.14,4.14,0,0,0-.49-1.53,7.45,7.45,0,0,0-.49-.76h0c.66,0,1.35,0,2,0l1,0c1-.06,2-.15,3-.28a48,48,0,0,0,5.45-1q1.71-.43,3.24-1c.51-.18,1-.36,1.48-.55A24.66,24.66,0,0,0,876.88,94c.4-.21.77-.43,1.13-.65A12.8,12.8,0,0,0,879.85,92a9.38,9.38,0,0,0,.7-.72,5.25,5.25,0,0,0,.91-1.48,3.16,3.16,0,0,0,.19-1.48c-.16-1.27-1.17-2.35-2.8-3.19a16,16,0,0,0-3.57-1.25,41.32,41.32,0,0,0,10.34-3.22c1.17-.53,2.3-1.1,3.36-1.69.87-.48,1.69-1,2.48-1.48a28.67,28.67,0,0,0,6.09-5.07l.23-.27a7.9,7.9,0,0,0,2.07-4.25,3.13,3.13,0,0,0-.25-1.47,3,3,0,0,0-.46-.69l-.17-.18a3.31,3.31,0,0,0-.53-.43l-.17-.13a6.51,6.51,0,0,0-.88-.41l-.21-.07a7.19,7.19,0,0,0-.86-.24l-.33-.07c-.35-.06-.73-.11-1.12-.14l-.12,0c-.41,0-.86,0-1.31,0l-1.2.06-.59,0c-.62.06-1.27.14-1.94.26a50.25,50.25,0,0,0,5.41-4c1.07-.9,2.07-1.82,3-2.74s1.81-1.87,2.6-2.8c3.18-3.72,5.17-7.36,5.53-10.11a8.44,8.44,0,0,0,.06-1A5,5,0,0,0,906.21,42.86Z"/><path class="cls-2" d="M911.62,36.23A12.26,12.26,0,0,0,902,32.1c-7.58,0-15.54,5.16-19.61,8.23-.24.19-.48.39-.7.6-7.7,7.35-20.79,13.65-33.45,19.73-6.44,3.09-12.55,6-17.91,9.09L823,57.4l0-.07a27.41,27.41,0,0,0-38.44-10.5H738.07a4,4,0,0,0-.31,8c11.88.93,26.52,8.55,33.44,15.34,0,.06,0,.12,0,.19a77.87,77.87,0,0,0,62.9,76.31c24.87,30.7,45.37,33.86,47.66,34.12.31,0,.61.05.91.05a8,8,0,0,0,6.86-12.11l-19.23-32.17c-.1-.19-.18-.38-.29-.56l-13.79-23.05c4.82-1.49,8.18-4,9.78-7.34a45.4,45.4,0,0,0,14.69-4.51c8.4-4.53,9.25-10.26,8.94-13.47a45.12,45.12,0,0,0,12.82-8.71c6.91-7,5.75-12.91,4.44-15.79a10.5,10.5,0,0,0-1.1-1.9,42.37,42.37,0,0,0,5.79-7.95C916.51,44.24,913.72,38.72,911.62,36.23ZM772.88,61A65.14,65.14,0,0,0,763,54.83h13A27.15,27.15,0,0,0,772.88,61Zm24.43,56.3a70.29,70.29,0,0,1-8-10.74c-1.17-1.91-2.24-3.89-3.22-5.92a69.73,69.73,0,0,1-3.75-9.5c-.67-2.19-1.25-4.42-1.71-6.69-.25-1.21-.46-2.45-.65-3.69h0a70.77,70.77,0,0,1-.77-10.36h0a19.45,19.45,0,0,1,5.71-13.8,20.05,20.05,0,0,1,2.89-2.39,19.23,19.23,0,0,1,15.7-2.7h0A19.45,19.45,0,0,1,809,53.8a20.15,20.15,0,0,1,2.05,1.48h0a19.69,19.69,0,0,1,5,6.23h0L823.57,74c-6.37,4.44-10.89,9.3-12.35,15.28a17.2,17.2,0,0,0,5.51,16.83c5.93,5.3,16.07,8.47,27.12,8.47,1.36,0,2.67,0,3.92-.13l15.37,25.67h-14.2A69.59,69.59,0,0,1,797.31,117.25Zm85.35,55.58h-.09l-.37-.06c-.36-.07-.92-.19-1.68-.39l-1-.29a44.27,44.27,0,0,1-4.61-1.72c-.68-.3-1.39-.62-2.14-1-.44-.21-.9-.44-1.37-.69-.93-.49-1.92-1-3-1.64-1.55-.91-3.2-2-4.93-3.17q-1.74-1.22-3.6-2.66t-3.81-3.12c-1.3-1.13-2.64-2.34-4-3.64q-3-2.89-6.28-6.43c1.05,0,2.1.08,3.16.08h14.2A7.94,7.94,0,0,0,867.2,147h0l15.46,25.85Zm23.6-128.09c-.36,2.75-2.35,6.39-5.53,10.11-.79.93-1.66,1.87-2.6,2.8s-1.94,1.84-3,2.74a50.25,50.25,0,0,1-5.41,4c.67-.12,1.32-.2,1.94-.26l.59,0,1.2-.06h.19c.39,0,.76,0,1.12,0l.12,0c.39,0,.77.08,1.12.14l.33.07a7.19,7.19,0,0,1,.86.24l.21.07a6.51,6.51,0,0,1,.88.41l.17.13a3.31,3.31,0,0,1,.53.43l.17.18a3,3,0,0,1,.46.69,3.13,3.13,0,0,1,.25,1.47,7.9,7.9,0,0,1-2.07,4.25l-.23.27a28.67,28.67,0,0,1-6.09,5.07c-.79.51-1.61,1-2.48,1.48-1.06.59-2.19,1.16-3.36,1.69a41.32,41.32,0,0,1-10.34,3.22,16,16,0,0,1,3.57,1.25c1.63.84,2.64,1.92,2.8,3.19a3.16,3.16,0,0,1-.19,1.48,5.25,5.25,0,0,1-.91,1.48,9.38,9.38,0,0,1-.7.72A12.8,12.8,0,0,1,878,93.39c-.36.22-.73.44-1.13.65a24.66,24.66,0,0,1-2.62,1.22c-.48.19-1,.37-1.48.55q-1.53.52-3.24,1a48,48,0,0,1-5.45,1c-1,.13-2,.22-3,.28l-1,0c-.6,0-1.2,0-1.78,0h-.26a7.45,7.45,0,0,1,.49.76,4.14,4.14,0,0,1,.49,1.53,3.14,3.14,0,0,1,0,.75,3.3,3.3,0,0,1-.15.62c0,.07-.08.13-.11.2a2.69,2.69,0,0,1-.19.38c-.05.08-.12.15-.17.22s-.16.22-.26.33-.17.15-.25.23-.19.19-.3.28a3.62,3.62,0,0,1-.32.22l-.35.26-.39.22-.4.22-.44.2-.44.2c-.16.07-.32.12-.49.18l-.49.19-.53.16-.54.16c-.19.06-.39.1-.59.15l-.56.14-.16,0h0l-.46.09c-.2,0-.39.09-.6.12l-.64.11-.64.1-.66.08-.69.08-.67.05c-.24,0-.48,0-.72.06l-.7,0-.73,0-.72,0h-1c-.92,0-1.86,0-2.8-.09h-.16c-1-.06-1.91-.15-2.87-.27l-.14,0c-1-.12-1.93-.27-2.88-.45l-.11,0c-1-.19-1.91-.4-2.83-.66l-.09,0c-.93-.26-1.84-.54-2.72-.87l-.07,0a25.52,25.52,0,0,1-2.56-1.08l0,0a22.67,22.67,0,0,1-2.33-1.31l0,0a17.91,17.91,0,0,1-2-1.55,9.81,9.81,0,0,1-3.12-5.28,8.19,8.19,0,0,1,0-3.69,11.88,11.88,0,0,1,2.1-4.25c2.4-3.22,6.49-6.26,11.54-9.25l1.83-1h0c.89-.51,1.8-1,2.73-1.51,7.14-3.82,15.56-7.63,23.76-11.71,1.82-.91,3.63-1.83,5.41-2.76,8-4.22,15.49-8.76,20.89-13.91.62-.47,1.24-.91,1.85-1.33l.51-.35c.5-.33,1-.65,1.5-.95l.37-.23c.6-.36,1.19-.69,1.77-1l.43-.22c.46-.24.92-.46,1.37-.67l.47-.21c.56-.24,1.11-.47,1.64-.66l.18-.06c.48-.17.94-.31,1.39-.43l.43-.11c.42-.11.83-.19,1.23-.26l.22,0a10,10,0,0,1,1.3-.09h.37a6.39,6.39,0,0,1,.64,0l.37.06a4.58,4.58,0,0,1,.56.14l.32.11a4,4,0,0,1,.51.25l.23.14a2.8,2.8,0,0,1,.6.54,3.26,3.26,0,0,1,.7,1.46,5,5,0,0,1,.11.9A8.44,8.44,0,0,1,906.26,44.74Z"/></g></svg>