<svg id="Capa_1" data-name="Capa 1" xmlns="http://www.w3.org/2000/svg" viewBox="0 0 333.79 154.86"><defs><style>.cls-1{fill:#d12e51;}</style></defs><title>TGS</title><path class="cls-1" d="M103.41,105.39a2,2,0,0,0,1.73-1.59l2.31-11.31a2,2,0,0,0-.48-1.75,2,2,0,0,0-1.48-.65l-.23,0L56.41,95.73a2,2,0,0,0-1.73,1.59l-1.78,8.82a11,11,0,0,0-4.6-6.09c-3.26-2.16-7.57-3.26-12.79-3.26a46,46,0,0,0-5.21.32c-7.76.89-14,3.29-18.64,7.13-4.85,4.05-6.95,9.17-6.26,15.22a11.63,11.63,0,0,0,1.31,4.23,13.78,13.78,0,0,0,2.12,3A10.59,10.59,0,0,0,12.18,129c1.23.56,2.26,1,3.07,1.28a20.57,20.57,0,0,0,3.65.83c1.49.24,2.49.37,3.05.42l2.69.26,4,.3a12.53,12.53,0,0,1,4.76,1,1.61,1.61,0,0,1,.93,1.34c.1.88,0,2.06-2.15,3.31a20.56,20.56,0,0,1-8.12,2.42,22.6,22.6,0,0,1-2.74.17,10.08,10.08,0,0,1-4.29-.76c-.84-.39-1.6-1-1.48-2.82a2,2,0,0,0,0-.25,2,2,0,0,0-2-2h0l-.21,0L2.17,135.78A2,2,0,0,0,.43,137.4a18.81,18.81,0,0,0,.18,8.86,10.15,10.15,0,0,0,5,6,21.15,21.15,0,0,0,8,2.4,35.62,35.62,0,0,0,4,.2,55.39,55.39,0,0,0,6.31-.39A54.13,54.13,0,0,0,34.6,152.2,35.3,35.3,0,0,0,43.39,148,17,17,0,0,0,51,131.39a11.92,11.92,0,0,0-1.12-3.91A13.38,13.38,0,0,0,48,124.63a9.89,9.89,0,0,0-3-2.21,26.64,26.64,0,0,0-2.84-1.29,20,20,0,0,0-3.45-.86c-1.4-.25-2.42-.41-3.12-.51s-1.77-.21-3.26-.34-2.33-.21-2.84-.23l-3.07-.36a9.73,9.73,0,0,1-3.91-1,1.48,1.48,0,0,1-.77-1.23c-.09-.79,0-1.84,1.63-3a14.25,14.25,0,0,1,6.73-2.21,21.31,21.31,0,0,1,2.41-.15,7.81,7.81,0,0,1,4,.84A2.71,2.71,0,0,1,38,114.86a2,2,0,0,0,.63,1.56A2,2,0,0,0,40,117h.23L51,115.72a2,2,0,0,0,1.7-1.45,18.86,18.86,0,0,0,.65-3.56,2.08,2.08,0,0,0,1.06.31h.23l15.33-1.77-7.4,36.51a2,2,0,0,0,2,2.39h.23l13-1.5A2,2,0,0,0,79.48,145l7.65-37.78Zm-52.69,8.34L40,115a4.71,4.71,0,0,0-2.39-4.58,9.72,9.72,0,0,0-5.07-1.13,23,23,0,0,0-2.64.16A16,16,0,0,0,22.18,112a5.13,5.13,0,0,0-2.44,4.87,3.46,3.46,0,0,0,1.73,2.71,11.65,11.65,0,0,0,4.71,1.23l3.14.36c.44,0,1.38.1,2.81.23s2.5.24,3.19.34,1.7.25,3,.49a19.14,19.14,0,0,1,3.1.76,23.78,23.78,0,0,1,2.63,1.2A8,8,0,0,1,46.47,126,11.5,11.5,0,0,1,48,128.37a10,10,0,0,1,.92,3.25,15.29,15.29,0,0,1-1.26,8.47,15.46,15.46,0,0,1-5.42,6.23,33.78,33.78,0,0,1-8.3,4,53,53,0,0,1-10.35,2.19,53.57,53.57,0,0,1-6.08.37,34.07,34.07,0,0,1-3.75-.19,19.16,19.16,0,0,1-7.25-2.16,8.2,8.2,0,0,1-4-4.85,16.64,16.64,0,0,1-.12-7.9l11.21-1.29a4.48,4.48,0,0,0,2.6,4.88,12,12,0,0,0,5.15,1,26.5,26.5,0,0,0,3-.18,22.31,22.31,0,0,0,8.91-2.69c2.32-1.38,3.36-3.14,3.11-5.26a3.57,3.57,0,0,0-1.94-2.86A14.78,14.78,0,0,0,28.83,130l-4-.29-2.72-.26c-.5,0-1.48-.18-2.91-.4a19.51,19.51,0,0,1-3.29-.74c-.75-.27-1.72-.68-2.91-1.22a8.69,8.69,0,0,1-2.73-1.81,12.29,12.29,0,0,1-1.82-2.58,9.79,9.79,0,0,1-1.07-3.51A14.44,14.44,0,0,1,13,105.78q6.48-5.41,17.58-6.69a44.21,44.21,0,0,1,5-.3q7.27,0,11.68,2.93Q53,105.59,50.72,113.73Zm26.8,30.91-13,1.5,7.94-39.2L54.36,109l2.28-11.31,48.85-5.62-2.31,11.31-17.72,2Z"/><path class="cls-1" d="M123.18,102.52,112.43,123l15.72-1.81-2.93-18.93ZM116,120.6l7.77-14.83,2.13,13.69Z"/><path class="cls-1" d="M137.25,88.33a2,2,0,0,0-2-1.66l-.23,0L116.68,88.8a2,2,0,0,0-1.53,1L86.9,142.42a2,2,0,0,0,1.76,3l.23,0,14-1.6a2,2,0,0,0,1.54-1.06l3.79-7.26,19.76-2.27.88,5.67a2,2,0,0,0,2,1.69H131l12.9-1.49a2,2,0,0,0,1.74-2.33Zm-6.45,50.19L129.62,131l-22.72,2.61-4.28,8.2-14,1.61,28.25-52.58,18.37-2.12L143.7,137Z"/><path class="cls-1" d="M245.61,88.32a10.67,10.67,0,0,0-6.35-1.94,14.49,14.49,0,0,0-1.71.1,18.17,18.17,0,0,0-9.56,4,20.17,20.17,0,0,0-6.08,7.92,18.8,18.8,0,0,0-1.44,9.15c.38,3.32,1.68,5.79,3.9,7.39a10.63,10.63,0,0,0,6.39,2,15.22,15.22,0,0,0,1.75-.11,18.09,18.09,0,0,0,9.55-4,20,20,0,0,0,6-8,18.71,18.71,0,0,0,1.43-9.12C249.14,92.37,247.83,89.91,245.61,88.32Zm.63,15.74a18.18,18.18,0,0,1-5.45,7.17,16,16,0,0,1-8.51,3.57,13.3,13.3,0,0,1-1.52.09,8.58,8.58,0,0,1-5.22-1.58c-1.75-1.27-2.76-3.23-3.08-6a16.71,16.71,0,0,1,1.3-8.15A18.16,18.16,0,0,1,229.24,92a16,16,0,0,1,8.54-3.56,12.63,12.63,0,0,1,1.48-.09A8.6,8.6,0,0,1,244.45,90c1.75,1.26,2.76,3.21,3.08,6A16.69,16.69,0,0,1,246.24,104.06Z"/><path class="cls-1" d="M319.35,65.08h-.06l-.2,0-12.71,1.46a2,2,0,0,0-1.73,1.59L298.8,96.67,286,70.25a2,2,0,0,0-1.8-1.13l-.23,0-14.53,1.67a2,2,0,0,0-1.73,1.59L264,90.63c-1-6-3.65-10.72-8-13.87a22.91,22.91,0,0,0-13.71-4,38.74,38.74,0,0,0-4.22.25A37.61,37.61,0,0,0,213.46,86.3a35.77,35.77,0,0,0-5.84,10.32l3.25-16.26a2,2,0,0,0-2-2.39h-.23l-13,1.5a2,2,0,0,0-1.21.62,2,2,0,0,0-.73-.14h-.23l-48.86,5.62a2,2,0,0,0-1.73,1.6l-2.28,11.3a2,2,0,0,0,2,2.39h.22l15.33-1.76-7.4,36.5a2,2,0,0,0,.49,1.75,2,2,0,0,0,1.47.65l.23,0,13-1.5a2,2,0,0,0,1.73-1.59l7.66-37.77L191,95.32l-7.28,36.25a2,2,0,0,0,.48,1.75,2,2,0,0,0,1.48.65l.23,0,13.1-1.5a2,2,0,0,0,1.73-1.6l4.83-24.17a32.25,32.25,0,0,0,.17,4.61c.77,6.68,3.54,11.8,8.24,15.21a22.84,22.84,0,0,0,13.75,4.06,36.18,36.18,0,0,0,4.2-.25,36.72,36.72,0,0,0,14-4.5A37.16,37.16,0,0,0,256.61,117a34.93,34.93,0,0,0,2.9-4.14l-2.05,10.07a2,2,0,0,0,2,2.4h.23l12.76-1.47a2,2,0,0,0,1.73-1.59L280,93.88l13.14,26.24a2,2,0,0,0,1.79,1.11l.23,0,14.22-1.63a2,2,0,0,0,1.73-1.59l10.2-50.41a2,2,0,0,0-1.93-2.5ZM173.66,95.31l-7.94,39.2-13,1.5,7.95-39.2-18.06,2.07,2.27-11.3L193.7,82l-2.31,11.31Zm25.16,35.15L185.72,132l10.15-50.5,13-1.5ZM261,104.63a33.33,33.33,0,0,1-6,11.09,35.14,35.14,0,0,1-10.1,8.35,34.78,34.78,0,0,1-13.22,4.26,36.77,36.77,0,0,1-4,.23,20.82,20.82,0,0,1-12.58-3.68q-6.36-4.62-7.42-13.82A29.17,29.17,0,0,1,209,98.67a33.65,33.65,0,0,1,6-11.11,35.8,35.8,0,0,1,27.31-12.83,20.83,20.83,0,0,1,12.53,3.65q6.34,4.59,7.41,13.86a28.86,28.86,0,0,1-.27,8.45l-.3,1.45C261.5,103,261.28,103.8,261,104.63Zm48.1,13-14.22,1.64L280.16,89.79l-1.43.16-6.54,31.89-12.77,1.47,4.24-20.8c.1-.44.19-.89.27-1.33l5.78-28.39,14.53-1.67,14.36,29.72,1.42-.16,6.59-32.13,12.73-1.47Z"/><path class="cls-1" d="M10.06,65.88h.23l8.88-1L14.6,87.36a2,2,0,0,0,2,2.4h.23l8.38-1a2,2,0,0,0,1.74-1.59l4.83-23.79,9.34-1.07L36.62,84.76a2,2,0,0,0,.49,1.74,2,2,0,0,0,1.47.65h.23l8.41-1A2,2,0,0,0,49,84.58l2.19-10.94,10.1-1.15-1.93,9.67a2,2,0,0,0,2,2.39h.23l8.43-1A2.06,2.06,0,0,0,71,83.08a2,2,0,0,0,.77.15H72l27-3.1a2,2,0,0,0,1.73-1.58l1.41-7a2,2,0,0,0,.06-.5,2,2,0,0,0-2-2H100L84.15,70.92l.46-2.33,16.92-1.94a2,2,0,0,0,1.73-1.58l1.19-5.72a1.7,1.7,0,0,0,.07-.51,2,2,0,0,0-2-2h-.06l-.21,0L86.59,58.65l.41-2,17.2-2a2,2,0,0,0,1.74-1.59l1.41-7a2,2,0,0,0-.49-1.75,2,2,0,0,0-1.47-.65h-.23L78.1,46.77A2,2,0,0,0,77,47.3a1.89,1.89,0,0,0-.82-.18h-.23l-8.4,1a2,2,0,0,0-1.74,1.59L63.5,61.14,53.39,62.3l2-10.08a2.07,2.07,0,0,0,.06-.5,2,2,0,0,0-2-2h-.07l-.2,0-8.4,1a2,2,0,0,0-1.07.48A1.93,1.93,0,0,0,43,51l-.23,0L11.3,54.63a2,2,0,0,0-1.73,1.59L8.1,63.49a2,2,0,0,0,.49,1.75A2,2,0,0,0,10.06,65.88Zm95.33-20.22-1.41,7L85.33,54.79,84.09,61l18.43-2.11-1.22,5.83-18.36,2.1-1.3,6.45,18.59-2.13-1.43,7-27,3.09,1.3-6.54,5.22-25.93ZM53.47,51.72,50.89,64.6,65.17,63l2.58-12.89,8.4-1-5,25.19-1.31,6.53a.71.71,0,0,0,0,.14l-.12.6-8.43,1,2.48-12.36L49.46,71.82,47,84.19l-8.41,1,5.68-28.54.65-3.2s0-.11,0-.16l.11-.56ZM11.53,56.61,42.93,53l-.63,3.21-.84,4.06L30.07,61.59,25,86.8l-8.39,1,5.12-25.21L10.06,63.88Z"/><path class="cls-1" d="M199.28,29.7,188.53,50.2l15.72-1.81-2.94-18.93Zm-7.22,18.08L199.83,33,202,46.64Z"/><path class="cls-1" d="M333.26.65A2,2,0,0,0,331.79,0h-.23L289.5,4.85a2,2,0,0,0-1.09.5,2,2,0,0,0-.93-.24h-.27l-17.38,2a2,2,0,0,0-1.57,1.1l-14.9,30.07L250,11.4a2,2,0,0,0-2-1.76l-.23,0-16.06,1.85A2,2,0,0,0,230,13.1l-9.09,45.84-7.56-43.43a2,2,0,0,0-2-1.66l-.23,0L192.78,16a2,2,0,0,0-1.53,1L165.14,65.61l4.29-21.41a1.68,1.68,0,0,0,.07-.5,2,2,0,0,0-2-2h-.06l-.2,0-26.86,3.09a2,2,0,0,0-1.73,1.59L137.11,54a2,2,0,0,0,.49,1.75,2,2,0,0,0,1.47.65h.23l10.57-1.22a11.65,11.65,0,0,1-2,2.35,14.63,14.63,0,0,1-4.67,3.08,19.77,19.77,0,0,1-4.7,1.14,14.12,14.12,0,0,1-1.68.1,9,9,0,0,1-5.36-1.54c-1.78-1.24-2.8-3.18-3.12-5.94A16.59,16.59,0,0,1,132,42.05a16.3,16.3,0,0,1,11.71-6.6,12.72,12.72,0,0,1,1.6-.1,10,10,0,0,1,4.16.85,6.13,6.13,0,0,1,3.24,3.39,2,2,0,0,0,1.85,1.24l.23,0,13-1.5a2,2,0,0,0,1.76-2.08,16.77,16.77,0,0,0-7.73-13.73,23.61,23.61,0,0,0-13.44-3.82,34.23,34.23,0,0,0-4,.24,39,39,0,0,0-14.28,4.45A35,35,0,0,0,113,45a32,32,0,0,0-1.3,13.39c.78,6.73,3.5,11.84,8.11,15.2a22.44,22.44,0,0,0,13.52,4,36.55,36.55,0,0,0,4.1-.24A31.12,31.12,0,0,0,149,73.75a28.09,28.09,0,0,0,3.73-2.48l0,.09a2,2,0,0,0,2,2.34l.23,0,7.37-.84a2,2,0,0,0,1.28-.71,2,2,0,0,0,1.2.42l.23,0,13.95-1.6a2,2,0,0,0,1.55-1.06l3.79-7.26L204,60.33l.89,5.68a2,2,0,0,0,2,1.69h.23L220,66.2a2,2,0,0,0,1-.44A2.08,2.08,0,0,0,222,66h.23l12.49-1.44a2,2,0,0,0,1.73-1.59l4-20.15,2.68,18.82a2,2,0,0,0,2,1.71h.23l10.11-1.16A2,2,0,0,0,257,61l9.35-19.27L263,58.64a2,2,0,0,0,2,2.39h.23l12.56-1.45a2,2,0,0,0,1-.43,1.93,1.93,0,0,0,.85.2l.23,0,42-4.83a2,2,0,0,0,1.73-1.59l2.2-10.85a2,2,0,0,0-1.94-2.5h-.05l-.21,0-26.14,3,1.19-5.92,27.11-3.12A2,2,0,0,0,327.42,32L329.28,23a2.16,2.16,0,0,0,.06-.51,2,2,0,0,0-2-2h-.06l-.21,0-25.89,3L302.28,18l27.55-3.17a2,2,0,0,0,1.73-1.59l2.19-10.89A2,2,0,0,0,333.26.65ZM162.05,70.85l-7.36.85,1.08-6.42A23.5,23.5,0,0,1,148,72a28.81,28.81,0,0,1-10.85,3.36,34.85,34.85,0,0,1-3.87.23A20.38,20.38,0,0,1,121,72q-6.24-4.54-7.3-13.81a29.91,29.91,0,0,1,1.22-12.56,32.93,32.93,0,0,1,16.22-19.46,36.91,36.91,0,0,1,13.55-4.23,32.44,32.44,0,0,1,3.75-.22,21.49,21.49,0,0,1,12.32,3.48,14.83,14.83,0,0,1,6.86,12.16l-13,1.5a8.2,8.2,0,0,0-4.26-4.44,11.79,11.79,0,0,0-5-1,16.29,16.29,0,0,0-1.82.11,18.35,18.35,0,0,0-13.09,7.39,18.63,18.63,0,0,0-4,13.74q.57,5,4,7.35a11,11,0,0,0,6.5,1.9,18.21,18.21,0,0,0,1.91-.11,22.27,22.27,0,0,0,5.17-1.25A16.71,16.71,0,0,0,149.23,59a13.9,13.9,0,0,0,3.93-6.21L139.07,54.4l1.54-7.61,26.88-3.09Zm44.84-5.15-1.18-7.57L183,60.74l-4.29,8.2-14,1.61L193,18l18.37-2.12,8.41,48.36Zm58-6.67,5.51-27.71-1.35.16-13.9,28.67-10.12,1.16-3.79-26.63-1.32.15-5.52,27.71L222,64l10-50.48L248,11.64l4,31.75,1.16-.14L270.06,9.11l17.41-2-9.62,48.64-.24,1.19v0l-.12.6ZM329.6,12.88l-29,3.34-1.93,9.58,28.66-3.3-1.88,9.06L296.9,34.84l-2,10,28.9-3.33-2.22,11-42,4.83.23-1.2,9.92-49.3L331.79,2Z"/></svg>